# Blender 5.1.2
# www.blender.org
mtllib GBU-31.mtl
o JDAM
v -0.000027 -0.170878 1.036650
v -0.019055 -0.055310 1.796310
v -0.053855 -0.162308 1.036650
v -0.000027 -0.058288 1.796310
v -0.203163 0.207720 -0.766086
v -0.194713 0.199269 -0.957455
v -0.196023 0.197959 -0.957455
v -0.204473 0.206409 -0.766086
v -0.209828 0.211767 0.156599
v -0.171743 0.176299 0.156841
v -0.208400 0.213074 0.156599
v -0.173051 0.174990 0.156841
v -0.164363 0.166302 -1.001542
v -0.163053 0.167609 -1.001542
v -0.204830 0.206767 -0.596278
v -0.203520 0.208077 -0.596278
v -0.179240 0.181180 -0.575689
v -0.177930 0.182487 -0.575689
v -0.189118 0.193674 -0.564059
v -0.190428 0.192367 -0.564059
v -0.196023 0.197959 -0.317824
v -0.194713 0.199389 -0.317824
v -0.185547 0.190104 -0.310316
v -0.186857 0.188794 -0.310316
v -0.209711 0.211767 -0.188168
v -0.185547 0.190104 -0.207121
v -0.186857 0.188794 -0.207121
v -0.208400 0.213074 -0.188168
v 0.015905 0.275322 -0.800485
v 0.015905 0.285557 -0.785467
v 0.015905 0.285557 -0.800485
v 0.015905 0.243067 -0.785467
v 0.015905 0.243067 -0.826646
v -0.015903 0.285557 -0.785467
v -0.015903 0.285557 -0.800485
v -0.015903 0.243067 -0.826646
v -0.015903 0.275322 -0.800485
v -0.015903 0.243067 -0.785467
v 0.028222 0.275322 -0.800485
v 0.028222 0.243067 -0.826646
v 0.028222 0.290079 -0.800485
v 0.022347 0.299364 -0.800485
v -0.022345 0.299364 -0.800485
v -0.028220 0.290079 -0.800485
v -0.028220 0.275322 -0.800485
v -0.028220 0.243067 -0.826646
v 0.028222 0.243067 -0.785467
v 0.028222 0.290079 -0.785467
v -0.022345 0.299364 -0.785467
v 0.022347 0.299364 -0.785467
v -0.028220 0.290079 -0.785467
v -0.028220 0.243067 -0.785467
v 0.223399 -0.218606 -0.030531
v 0.172697 -0.168023 0.161443
v 0.209832 -0.205155 0.161443
v 0.227802 -0.223128 -0.390616
v 0.161034 -0.156238 -0.996215
v 0.216972 -0.212178 -0.643998
v 0.198405 -0.193731 -0.961815
v 0.196977 -0.195158 -0.961815
v 0.215545 -0.213606 -0.643998
v 0.159605 -0.157668 -0.996215
v 0.226375 -0.224556 -0.390616
v 0.171270 -0.169450 0.161443
v 0.221972 -0.220033 -0.030531
v 0.208402 -0.206583 0.161443
v 0.015905 0.285082 0.015736
v 0.015905 0.295317 0.030876
v 0.015905 0.295317 0.015736
v 0.015905 0.252827 0.030876
v 0.015905 0.252827 -0.010667
v -0.015903 0.295317 0.030876
v -0.015903 0.295317 0.015736
v -0.015903 0.252827 -0.010667
v -0.015903 0.285082 0.015736
v -0.015903 0.252827 0.030876
v 0.028225 0.285082 0.015736
v 0.028225 0.252827 -0.010667
v 0.028225 0.300077 0.015736
v 0.022347 0.309125 0.015736
v -0.022345 0.309125 0.015736
v -0.028220 0.300077 0.015736
v -0.028220 0.285082 0.015736
v -0.028220 0.252827 -0.010667
v 0.028225 0.252827 0.030876
v 0.028225 0.300077 0.030876
v -0.022345 0.309125 0.030876
v 0.022347 0.309125 0.030876
v -0.028220 0.300077 0.030876
v -0.028220 0.252827 0.030876
v 0.194714 0.199269 -0.957455
v 0.204475 0.206409 -0.766086
v 0.196024 0.197959 -0.957455
v 0.203167 0.207720 -0.766086
v 0.171745 0.176299 0.156841
v 0.209832 0.211767 0.156599
v 0.208402 0.213074 0.156599
v 0.173055 0.174990 0.156841
v 0.164367 0.166302 -1.001542
v 0.163057 0.167609 -1.001542
v 0.204832 0.206767 -0.596278
v 0.203522 0.208077 -0.596278
v 0.179245 0.181180 -0.575689
v 0.177935 0.182487 -0.575689
v 0.190432 0.192367 -0.564059
v 0.189122 0.193674 -0.564059
v 0.196024 0.197959 -0.317824
v 0.194714 0.199389 -0.317824
v 0.185552 0.190104 -0.310316
v 0.186860 0.188794 -0.310316
v 0.209712 0.211767 -0.188168
v 0.186860 0.188794 -0.207121
v 0.185552 0.190104 -0.207121
v 0.208402 0.213074 -0.188168
v -0.223395 -0.218606 -0.030531
v -0.209828 -0.205155 0.161443
v -0.172695 -0.168023 0.161443
v -0.227800 -0.223128 -0.390616
v -0.161030 -0.156238 -0.996215
v -0.216970 -0.212178 -0.643998
v -0.198403 -0.193731 -0.961815
v -0.196975 -0.195158 -0.961815
v -0.215540 -0.213606 -0.643998
v -0.159603 -0.157668 -0.996215
v -0.226372 -0.224556 -0.390616
v -0.171265 -0.169450 0.161443
v -0.221968 -0.220033 -0.030531
v -0.208400 -0.206583 0.161443
v -0.042370 0.042262 1.762397
v -0.230538 0.230452 1.509501
v -0.087538 0.087482 1.275984
v -0.230538 0.230452 1.762397
v -0.227085 0.233905 1.762397
v -0.227085 0.233905 1.509501
v -0.038917 0.045720 1.762397
v -0.084085 0.090902 1.275984
v -0.038917 -0.039005 1.762397
v -0.227085 -0.227173 1.509501
v -0.084085 -0.084233 1.275984
v -0.227085 -0.227173 1.762397
v -0.230538 -0.223840 1.762397
v -0.230538 -0.223840 1.509501
v -0.042370 -0.035555 1.762397
v -0.087538 -0.080780 1.275984
v 0.042372 0.042262 1.762397
v 0.230540 0.230452 1.509501
v 0.230540 0.230452 1.762397
v 0.087540 0.087482 1.275984
v 0.227090 0.233905 1.509501
v 0.227090 0.233905 1.762397
v 0.084087 0.090902 1.275984
v 0.038920 0.045720 1.762397
v 0.038920 -0.039005 1.762397
v 0.227090 -0.227173 1.509501
v 0.227090 -0.227173 1.762397
v 0.084087 -0.084233 1.275984
v 0.230540 -0.223840 1.509501
v 0.230540 -0.223840 1.762397
v 0.087540 -0.080780 1.275984
v 0.042372 -0.035555 1.762397
v -0.000027 0.003364 -2.073689
v 0.012090 0.079654 -1.945789
v 0.054632 0.057994 -1.945789
v 0.038862 0.122919 -1.835328
v 0.073912 0.105067 -1.835328
v 0.051624 0.162254 -1.685140
v 0.076292 0.015444 -1.945789
v 0.101702 0.077244 -1.835328
v -0.000027 -0.255026 -0.058448
v 0.071472 -0.216700 0.518745
v -0.000027 -0.227888 0.518745
v 0.079805 -0.242408 -0.058448
v 0.136040 -0.183850 0.518745
v 0.077364 -0.234791 -0.715702
v -0.000027 -0.246931 -0.715702
v 0.151870 -0.205633 -0.058448
v 0.147227 -0.199206 -0.715702
v 0.187217 -0.132673 0.518745
v 0.208997 -0.148503 -0.058448
v 0.072305 -0.219081 -1.020921
v 0.137587 -0.185993 -1.020921
v 0.202572 -0.143861 -0.715702
v 0.245654 -0.076438 -0.058448
v -0.000027 -0.230746 -1.020921
v 0.220067 -0.068105 0.518745
v 0.067902 -0.205633 -1.285932
v 0.129137 -0.174448 -1.285932
v 0.189360 -0.134221 -1.020921
v 0.238157 -0.073998 -0.715702
v 0.258273 0.003365 -0.058448
v -0.000027 -0.216463 -1.285932
v 0.231374 0.003365 0.518745
v 0.177814 -0.125771 -1.285932
v 0.222567 -0.068938 -1.020921
v 0.250417 0.003364 -0.715702
v 0.220067 0.074834 0.518745
v 0.245654 0.083197 -0.058448
v 0.238157 0.080727 -0.715702
v 0.208997 -0.064536 -1.285932
v 0.233992 0.003364 -1.020921
v 0.222567 0.075669 -1.020921
v 0.187217 0.139345 0.518745
v 0.208997 0.155232 -0.058448
v 0.202572 0.150589 -0.715702
v 0.189360 0.140889 -1.020921
v 0.219830 0.003364 -1.285932
v 0.208997 0.071264 -1.285932
v 0.177814 0.132559 -1.285932
v 0.136040 0.190582 0.518745
v 0.151870 0.212362 -0.058448
v 0.147227 0.205934 -0.715702
v 0.137587 0.192722 -1.020921
v 0.129137 0.181179 -1.285932
v 0.079805 0.249019 -0.058448
v 0.077364 0.241522 -0.715702
v 0.072305 0.225929 -1.020921
v 0.071472 0.223430 0.518745
v -0.000027 0.261634 -0.058448
v -0.000027 0.253780 -0.715702
v 0.067902 0.212362 -1.285932
v -0.000027 0.237354 -1.020921
v -0.000027 0.234737 0.518745
v -0.072303 0.225929 -1.020921
v -0.077360 0.241522 -0.715702
v -0.071470 0.223430 0.518745
v -0.079800 0.249019 -0.058448
v -0.000027 0.223192 -1.285932
v -0.067898 0.212362 -1.285932
v -0.137583 0.192722 -1.020921
v -0.129133 0.181179 -1.285932
v -0.147225 0.205934 -0.715702
v -0.136037 0.190582 0.518745
v -0.151865 0.212362 -0.058448
v -0.208995 0.155232 -0.058448
v -0.189358 0.140889 -1.020921
v -0.177813 0.132559 -1.285932
v -0.202568 0.150589 -0.715702
v -0.187215 0.139345 0.518745
v -0.245653 0.083197 -0.058448
v -0.238155 0.080727 -0.715702
v -0.222563 0.075669 -1.020921
v -0.208995 0.071264 -1.285932
v -0.220063 0.074834 0.518745
v -0.258268 0.003365 -0.058448
v -0.250413 0.003364 -0.715702
v -0.233988 0.003364 -1.020921
v -0.219825 0.003364 -1.285932
v -0.231370 0.003365 0.518745
v -0.222563 -0.068938 -1.020921
v -0.238155 -0.073998 -0.715702
v -0.208995 -0.064536 -1.285932
v -0.220063 -0.068105 0.518745
v -0.245653 -0.076438 -0.058448
v -0.189358 -0.134221 -1.020921
v -0.177813 -0.125771 -1.285932
v -0.202568 -0.143861 -0.715702
v -0.187215 -0.132673 0.518745
v -0.208995 -0.148503 -0.058448
v -0.137583 -0.185993 -1.020921
v -0.129133 -0.174448 -1.285932
v -0.147225 -0.199206 -0.715702
v -0.136037 -0.183850 0.518745
v -0.151865 -0.205633 -0.058448
v -0.079800 -0.242408 -0.058448
v -0.077360 -0.234791 -0.715702
v -0.072303 -0.219081 -1.020921
v -0.067898 -0.205633 -1.285932
v -0.071470 -0.216700 0.518745
v 0.058647 0.022415 1.796310
v 0.058647 -0.015708 1.796310
v 0.061652 0.003365 1.796310
v 0.049900 0.039607 1.796310
v 0.049900 -0.032905 1.796310
v 0.036242 -0.046563 1.796310
v 0.036242 0.053250 1.796310
v 0.019060 -0.055310 1.796310
v 0.019060 0.062012 1.796310
v -0.000027 0.065047 1.796310
v -0.019055 0.062012 1.796310
v -0.036240 -0.046563 1.796310
v -0.036240 0.053250 1.796310
v -0.049898 0.039607 1.796310
v -0.049898 -0.032905 1.796310
v -0.058645 0.022415 1.796310
v -0.058645 -0.015708 1.796310
v -0.061650 0.003365 1.796310
v 0.053857 -0.162308 1.036650
v 0.102417 -0.137673 1.036650
v 0.140919 -0.099110 1.036650
v 0.165675 -0.050490 1.036650
v 0.174245 0.003365 1.036650
v 0.165675 0.057204 1.036650
v 0.140919 0.105780 1.036650
v 0.102417 0.144342 1.036650
v 0.053857 0.169040 1.036650
v -0.000027 0.177607 1.036650
v -0.053855 0.169040 1.036650
v -0.102413 0.144342 1.036650
v -0.140915 0.105780 1.036650
v -0.165673 0.057204 1.036650
v -0.174243 0.003365 1.036650
v -0.165673 -0.050490 1.036650
v -0.140915 -0.099110 1.036650
v -0.102413 -0.137673 1.036650
v 0.119555 0.042209 -1.835328
v 0.098192 0.138452 -1.685140
v 0.135087 0.101554 -1.685140
v 0.158892 0.054974 -1.685140
v 0.068855 -0.031716 -1.945789
v 0.125684 0.003364 -1.835328
v 0.166985 0.003364 -1.685140
v 0.119555 -0.035496 -1.835328
v 0.158177 0.118337 -1.509759
v 0.186028 0.063797 -1.509759
v 0.195550 0.003364 -1.509759
v 0.060432 0.189389 -1.509759
v 0.114975 0.161539 -1.509759
v 0.158892 -0.048231 -1.685140
v 0.101702 -0.070546 -1.835328
v 0.186028 -0.057096 -1.509759
v 0.135087 -0.094826 -1.685140
v 0.158177 -0.111608 -1.509759
v 0.098192 -0.131721 -1.685140
v 0.073912 -0.098396 -1.835328
v 0.114975 -0.154811 -1.509759
v 0.060432 -0.182661 -1.509759
v 0.051624 -0.155526 -1.685140
v 0.038862 -0.116248 -1.835328
v 0.035082 -0.065488 -1.945789
v -0.000027 -0.192183 -1.509759
v -0.000027 -0.163618 -1.685140
v -0.000027 -0.122318 -1.835328
v -0.012085 -0.072926 -1.945789
v -0.000027 0.198912 -1.509759
v -0.060430 0.189389 -1.509759
v -0.051623 0.162254 -1.685140
v -0.000027 0.170347 -1.685140
v -0.114970 0.161539 -1.509759
v -0.098188 0.138452 -1.685140
v -0.073907 0.105067 -1.835328
v -0.038858 0.122919 -1.835328
v -0.000027 0.129107 -1.835328
v -0.035080 0.072187 -1.945789
v -0.101700 0.077244 -1.835328
v -0.135085 0.101554 -1.685140
v -0.158175 0.118337 -1.509759
v -0.068850 0.038429 -1.945789
v -0.158887 0.054974 -1.685140
v -0.119552 0.042209 -1.835328
v -0.186025 0.063797 -1.509759
v -0.076290 -0.008716 -1.945789
v -0.125683 0.003364 -1.835328
v -0.166980 0.003364 -1.685140
v -0.195545 0.003364 -1.509759
v -0.119552 -0.035496 -1.835328
v -0.054628 -0.051266 -1.945789
v -0.158887 -0.048231 -1.685140
v -0.186025 -0.057096 -1.509759
v -0.101700 -0.070546 -1.835328
v -0.135085 -0.094826 -1.685140
v -0.158175 -0.111608 -1.509759
v -0.073907 -0.098396 -1.835328
v -0.038858 -0.116248 -1.835328
v -0.098188 -0.131721 -1.685140
v -0.051623 -0.155526 -1.685140
v -0.114970 -0.154811 -1.509759
v -0.060430 -0.182661 -1.509759
vn -0.1556 -0.9772 0.1448
vn -0.2194 -0.9647 0.1460
vn -0.3500 -0.9272 0.1332
vn -0.3081 -0.9400 0.1466
vn -0.1530 -0.9776 0.1449
vn -0.7058 0.7056 -0.0623
vn -0.7057 0.7057 -0.0623
vn -0.7057 0.7058 -0.0623
vn -0.0031 0.0034 1.0000
vn -0.0033 0.0033 1.0000
vn -0.4961 0.4961 -0.7126
vn -0.4961 0.4961 -0.7125
vn -0.4960 0.4961 -0.7126
vn -0.7069 0.7073 -0.0029
vn -0.3496 0.3498 0.8691
vn -0.3498 0.3497 0.8691
vn -0.3497 0.3497 0.8692
vn -0.4188 0.4187 -0.8058
vn -0.4187 0.4189 -0.8058
vn -0.7067 0.7068 -0.0321
vn -0.7369 0.6753 -0.0324
vn -0.3671 0.3384 0.8664
vn -0.3556 0.3531 0.8654
vn -0.3681 0.3374 0.8664
vn -0.3545 0.3544 0.8653
vn -0.3569 0.3571 -0.8632
vn -0.3570 0.3570 -0.8632
vn 0.7071 0.7071 -0.0000
vn 0.7082 0.7060 -0.0000
vn 0.7072 0.7070 -0.0000
vn 0.7118 0.7024 -0.0001
vn 0.7077 0.7065 -0.0000
vn 0.7088 0.7054 -0.0001
vn -0.7069 0.7073 -0.0000
vn -0.7073 0.7069 -0.0000
vn -0.7088 -0.7054 0.0001
vn -0.7072 -0.7070 -0.0002
vn -0.7071 -0.7071 -0.0002
vn -0.7077 -0.7066 -0.0000
vn -0.7071 -0.7071 -0.0000
vn -0.7072 -0.7070 -0.0000
vn -0.7070 0.7072 -0.0002
vn -0.6757 0.7371 -0.0000
vn -0.6756 0.7373 -0.0000
vn -1.0000 -0.0000 -0.0000
vn -0.0000 -1.0000 -0.0000
vn 1.0000 -0.0000 -0.0000
vn -0.0000 0.6299 -0.7766
vn -0.0000 0.3353 -0.9421
vn -0.0000 -0.0000 -1.0000
vn -0.0000 0.3011 -0.9536
vn -0.0000 0.6299 -0.7767
vn -0.0000 1.0000 -0.0000
vn -0.0000 -0.0000 1.0000
vn 0.8451 0.5346 -0.0000
vn 0.8450 0.5347 -0.0000
vn 0.8451 0.5347 -0.0000
vn -0.8448 0.5350 -0.0000
vn -0.8450 0.5347 -0.0000
vn 0.7059 0.7083 -0.0002
vn 0.7069 0.7073 0.0003
vn 0.7071 0.7071 0.0004
vn 0.7073 0.7069 0.0001
vn 0.7081 0.7061 -0.0003
vn 0.7058 0.7084 0.0004
vn 0.7085 0.7058 -0.0004
vn 0.7049 -0.7045 -0.0821
vn 0.7045 -0.7050 -0.0820
vn 0.7047 -0.7047 -0.0821
vn -0.7058 -0.7084 -0.0004
vn -0.7081 -0.7061 0.0003
vn -0.7084 -0.7058 0.0004
vn -0.7073 -0.7069 -0.0001
vn -0.7070 -0.7073 -0.0003
vn -0.7059 -0.7083 0.0002
vn -0.7071 -0.7071 -0.0004
vn 0.3854 -0.3850 -0.8386
vn 0.3853 -0.3853 -0.8385
vn 0.7038 -0.7035 0.0990
vn 0.7036 -0.7037 0.0991
vn 0.7068 -0.7072 0.0175
vn 0.7071 -0.7069 0.0175
vn 0.7057 -0.7059 -0.0607
vn -0.0000 0.6334 -0.7738
vn -0.0000 0.3375 -0.9413
vn 0.8386 0.5447 -0.0000
vn 0.8386 0.5448 -0.0000
vn -0.8384 0.5450 -0.0000
vn -0.8387 0.5447 -0.0000
vn -0.8386 0.5447 -0.0000
vn -0.8387 0.5446 -0.0000
vn 0.7056 0.7058 -0.0623
vn 0.7058 0.7057 -0.0623
vn 0.0033 0.0033 1.0000
vn 0.0031 0.0034 1.0000
vn 0.4961 0.4962 -0.7125
vn 0.4962 0.4961 -0.7125
vn 0.7073 0.7069 -0.0030
vn 0.7072 0.7070 -0.0030
vn 0.7070 0.7072 -0.0029
vn 0.3497 0.3498 0.8691
vn 0.3496 0.3498 0.8691
vn 0.4188 0.4188 -0.8058
vn 0.4187 0.4189 -0.8058
vn 0.4188 0.4187 -0.8058
vn 0.7367 0.6754 -0.0324
vn 0.7068 0.7067 -0.0321
vn 0.7369 0.6753 -0.0324
vn 0.3556 0.3532 0.8653
vn 0.3671 0.3385 0.8664
vn 0.3681 0.3375 0.8664
vn 0.3545 0.3546 0.8652
vn 0.3567 0.3571 -0.8633
vn 0.3573 0.3570 -0.8631
vn -0.7071 0.7071 -0.0000
vn -0.7082 0.7060 -0.0000
vn -0.7118 0.7024 -0.0001
vn -0.7074 0.7068 -0.0000
vn -0.7089 0.7054 -0.0001
vn 0.7072 -0.7070 -0.0002
vn 0.7088 -0.7054 0.0001
vn 0.7071 -0.7071 -0.0002
vn 0.7075 -0.7067 -0.0000
vn 0.7071 -0.7071 -0.0000
vn 0.6757 0.7372 -0.0000
vn 0.7070 0.7072 -0.0002
vn 0.7071 0.7071 -0.0002
vn -0.7059 0.7083 -0.0002
vn -0.7071 0.7071 0.0004
vn -0.7069 0.7073 0.0003
vn -0.7073 0.7069 0.0001
vn -0.7081 0.7061 -0.0003
vn -0.7058 0.7084 0.0004
vn -0.7084 0.7058 -0.0004
vn -0.7045 -0.7050 -0.0821
vn -0.7047 -0.7047 -0.0821
vn -0.7047 -0.7048 -0.0821
vn 0.7058 -0.7084 -0.0004
vn 0.7084 -0.7058 0.0004
vn 0.7081 -0.7061 0.0003
vn 0.7073 -0.7069 -0.0001
vn 0.7069 -0.7073 -0.0003
vn 0.7059 -0.7083 0.0002
vn 0.7071 -0.7071 -0.0004
vn -0.3852 -0.3852 -0.8386
vn -0.3854 -0.3851 -0.8386
vn -0.7034 -0.7039 0.0990
vn -0.7036 -0.7036 0.0991
vn -0.7068 -0.7072 0.0175
vn -0.7070 -0.7070 0.0175
vn -0.7057 -0.7059 -0.0607
vn -0.7071 -0.7071 -0.0001
vn -0.7072 -0.7071 -0.0000
vn -0.7070 0.7072 -0.0000
vn -0.5321 0.5369 -0.6546
vn -0.5346 0.5344 -0.6547
vn -0.5321 0.5370 -0.6546
vn -0.5345 0.5347 -0.6545
vn 0.7071 -0.7072 0.0001
vn 0.7070 -0.7072 0.0001
vn -0.6944 -0.7196 -0.0000
vn -0.6948 -0.7192 -0.0000
vn -0.6947 -0.7193 -0.0000
vn -0.5253 -0.5436 -0.6546
vn -0.5344 -0.5344 -0.6549
vn -0.5252 -0.5439 -0.6545
vn -0.5345 -0.5343 -0.6549
vn 0.7071 -0.7071 -0.0001
vn 0.7072 -0.7071 -0.0000
vn 0.7074 0.7068 -0.0000
vn 0.5347 0.5343 -0.6547
vn 0.5321 0.5369 -0.6547
vn 0.5344 0.5347 -0.6547
vn -0.7071 -0.7072 0.0001
vn -0.7070 -0.7072 0.0001
vn 0.6945 -0.7195 -0.0000
vn 0.6948 -0.7192 -0.0000
vn 0.7073 0.7069 -0.0000
vn 0.5344 -0.5344 -0.6548
vn 0.5250 -0.5440 -0.6546
vn 0.5250 -0.5442 -0.6544
vn 0.5345 -0.5343 -0.6548
vn 0.7385 -0.1170 -0.6640
vn 0.4037 0.7929 -0.4564
vn 0.6224 0.6223 -0.4747
vn 0.4267 0.8378 -0.3407
vn 0.5181 0.7941 -0.3178
vn 0.3018 0.9295 -0.2122
vn 0.8718 0.1381 -0.4701
vn 0.6512 0.6505 -0.3909
vn 0.1560 -0.9876 0.0170
vn 0.3076 -0.9504 0.0469
vn 0.1544 -0.9869 0.0464
vn 0.3091 -0.9509 0.0172
vn 0.5869 -0.8083 0.0467
vn 0.3080 -0.9508 -0.0330
vn 0.1552 -0.9873 -0.0326
vn 0.5880 -0.8087 0.0172
vn 0.5874 -0.8086 -0.0327
vn 0.8083 -0.5869 0.0466
vn 0.8091 -0.5874 0.0172
vn 0.3088 -0.9496 -0.0535
vn 0.5861 -0.8084 -0.0538
vn 0.8086 -0.5874 -0.0327
vn 0.9511 -0.3085 0.0172
vn 0.1588 -0.9859 -0.0525
vn 0.9501 -0.3083 0.0466
vn 0.3091 -0.9495 -0.0535
vn 0.5867 -0.8080 -0.0537
vn 0.8080 -0.5867 -0.0537
vn 0.9506 -0.3088 -0.0327
vn 0.9999 -0.0000 0.0172
vn 0.1572 -0.9861 -0.0531
vn 0.9989 -0.0000 0.0466
vn 0.8079 -0.5868 -0.0539
vn 0.9498 -0.3081 -0.0537
vn 0.9995 -0.0000 -0.0327
vn 0.9501 0.3085 0.0466
vn 0.9510 0.3086 0.0172
vn 0.9506 0.3088 -0.0327
vn 0.9496 -0.3089 -0.0536
vn 0.9986 -0.0000 -0.0537
vn 0.9498 0.3083 -0.0537
vn 0.8084 0.5868 0.0466
vn 0.8091 0.5875 0.0172
vn 0.8086 0.5874 -0.0327
vn 0.8081 0.5866 -0.0537
vn 0.9986 -0.0000 -0.0534
vn 0.9497 0.3087 -0.0536
vn 0.8078 0.5870 -0.0537
vn 0.5871 0.8082 0.0466
vn 0.5874 0.8091 0.0172
vn 0.5874 0.8086 -0.0327
vn 0.5869 0.8079 -0.0538
vn 0.5866 0.8081 -0.0537
vn 0.3085 0.9511 0.0172
vn 0.3088 0.9506 -0.0327
vn 0.3081 0.9498 -0.0537
vn 0.3083 0.9502 0.0466
vn -0.0001 0.9999 0.0172
vn -0.0001 0.9995 -0.0327
vn 0.3088 0.9496 -0.0536
vn -0.0001 0.9986 -0.0537
vn -0.0001 0.9989 0.0466
vn -0.3081 0.9498 -0.0537
vn -0.3088 0.9506 -0.0327
vn -0.3083 0.9501 0.0466
vn -0.3085 0.9511 0.0172
vn -0.0001 0.9986 -0.0534
vn -0.3089 0.9496 -0.0536
vn -0.5869 0.8079 -0.0537
vn -0.5865 0.8081 -0.0539
vn -0.5874 0.8086 -0.0327
vn -0.5871 0.8082 0.0466
vn -0.5874 0.8091 0.0172
vn -0.8091 0.5875 0.0172
vn -0.8081 0.5866 -0.0536
vn -0.8079 0.5869 -0.0538
vn -0.8086 0.5874 -0.0328
vn -0.8084 0.5868 0.0466
vn -0.9510 0.3086 0.0172
vn -0.9506 0.3088 -0.0327
vn -0.9498 0.3083 -0.0537
vn -0.9497 0.3087 -0.0536
vn -0.9501 0.3085 0.0466
vn -0.9999 -0.0000 0.0172
vn -0.9995 -0.0000 -0.0327
vn -0.9986 -0.0000 -0.0537
vn -0.9986 -0.0000 -0.0534
vn -0.9989 -0.0000 0.0465
vn -0.9498 -0.3081 -0.0537
vn -0.9506 -0.3088 -0.0327
vn -0.9496 -0.3089 -0.0536
vn -0.9501 -0.3083 0.0466
vn -0.9511 -0.3085 0.0172
vn -0.8080 -0.5867 -0.0537
vn -0.8079 -0.5868 -0.0539
vn -0.8086 -0.5874 -0.0327
vn -0.8083 -0.5869 0.0466
vn -0.8091 -0.5874 0.0172
vn -0.5861 -0.8084 -0.0538
vn -0.5867 -0.8080 -0.0537
vn -0.5874 -0.8086 -0.0327
vn -0.5869 -0.8083 0.0467
vn -0.5880 -0.8087 0.0172
vn -0.3091 -0.9509 0.0172
vn -0.3081 -0.9508 -0.0329
vn -0.3089 -0.9496 -0.0535
vn -0.3092 -0.9495 -0.0535
vn -0.3076 -0.9504 0.0469
vn -0.1561 -0.9876 0.0170
vn -0.1553 -0.9873 -0.0326
vn -0.1590 -0.9859 -0.0525
vn -0.1573 -0.9861 -0.0531
vn -0.1545 -0.9869 0.0464
vn 0.1558 -0.9797 0.1262
vn 0.3045 -0.9412 0.1466
vn 0.1525 -0.9776 0.1449
vn 0.3059 -0.9434 0.1278
vn 0.1538 -0.9821 0.1084
vn 0.5813 -0.8004 0.1465
vn 0.3060 -0.9457 0.1097
vn 0.5826 -0.8026 0.1279
vn 0.5840 -0.8043 0.1097
vn 0.8027 -0.5825 0.1279
vn 0.8005 -0.5812 0.1466
vn 0.8043 -0.5840 0.1097
vn 0.9454 -0.3068 0.1097
vn 0.9432 -0.3067 0.1279
vn 0.9410 -0.3050 0.1466
vn 0.9940 -0.0000 0.1097
vn 0.9918 -0.0000 0.1279
vn 0.9892 0.0001 0.1466
vn 0.9431 0.3069 0.1279
vn 0.9410 0.3051 0.1466
vn 0.9454 0.3070 0.1098
vn 0.8026 0.5827 0.1279
vn 0.8003 0.5815 0.1466
vn 0.8044 0.5839 0.1097
vn 0.5813 0.8004 0.1465
vn 0.5842 0.8041 0.1097
vn 0.5830 0.8024 0.1280
vn 0.3067 0.9455 0.1097
vn 0.3064 0.9433 0.1279
vn 0.3061 0.9406 0.1465
vn -0.0001 0.9940 0.1097
vn -0.0001 0.9918 0.1279
vn -0.0002 0.9892 0.1466
vn -0.3065 0.9432 0.1279
vn -0.3063 0.9406 0.1465
vn -0.3068 0.9454 0.1097
vn -0.5830 0.8024 0.1279
vn -0.5813 0.8004 0.1466
vn -0.5842 0.8041 0.1097
vn -0.8026 0.5827 0.1279
vn -0.8003 0.5814 0.1466
vn -0.8044 0.5839 0.1098
vn -0.9454 0.3069 0.1098
vn -0.9431 0.3069 0.1279
vn -0.9410 0.3051 0.1466
vn -0.9940 -0.0000 0.1097
vn -0.9918 -0.0000 0.1279
vn -0.9892 0.0001 0.1466
vn -0.9432 -0.3067 0.1279
vn -0.9410 -0.3050 0.1466
vn -0.9454 -0.3068 0.1097
vn -0.8027 -0.5825 0.1279
vn -0.8005 -0.5811 0.1466
vn -0.8043 -0.5840 0.1097
vn -0.5826 -0.8027 0.1280
vn -0.5813 -0.8004 0.1466
vn -0.5840 -0.8043 0.1096
vn -0.3060 -0.9457 0.1097
vn -0.1538 -0.9821 0.1084
vn -0.1563 -0.9818 0.1081
vn 0.8947 0.2948 -0.3357
vn 0.7943 0.5178 -0.3177
vn 0.5749 0.7903 -0.2120
vn 0.7903 0.5749 -0.2120
vn 0.9295 0.3018 -0.2122
vn 0.7865 -0.4004 -0.4702
vn 0.9420 -0.0041 -0.3356
vn 0.9772 -0.0000 -0.2122
vn 0.8973 -0.2867 -0.3356
vn 0.8015 0.5828 -0.1338
vn 0.9425 0.3064 -0.1338
vn 0.9910 -0.0000 -0.1339
vn 0.3063 0.9425 -0.1338
vn 0.5828 0.8015 -0.1337
vn 0.9295 -0.3017 -0.2122
vn 0.7599 -0.5567 -0.3356
vn 0.9454 0.3076 -0.1075
vn 0.8044 0.5843 -0.1076
vn 0.9942 -0.0000 -0.1074
vn 0.9424 -0.3065 -0.1338
vn 0.7903 -0.5748 -0.2120
vn 0.5840 0.8046 -0.1076
vn 0.3077 0.9454 -0.1074
vn 0.9454 -0.3077 -0.1074
vn 0.8015 -0.5829 -0.1337
vn 0.5750 -0.7903 -0.2118
vn 0.5574 -0.7594 -0.3356
vn 0.8044 -0.5842 -0.1075
vn 0.5828 -0.8015 -0.1337
vn 0.3063 -0.9425 -0.1338
vn 0.3018 -0.9295 -0.2120
vn 0.2860 -0.8975 -0.3358
vn 0.4004 -0.7865 -0.4702
vn 0.5843 -0.8044 -0.1075
vn 0.3077 -0.9454 -0.1074
vn 0.1562 -0.9820 -0.1061
vn 0.1541 -0.9792 -0.1323
vn 0.1513 -0.9660 -0.2096
vn 0.1452 -0.9289 -0.3407
vn 0.1386 -0.8790 -0.4562
vn -0.0001 0.9942 -0.1074
vn -0.0001 0.9910 -0.1339
vn -0.3064 0.9425 -0.1338
vn -0.3077 0.9454 -0.1074
vn -0.3019 0.9294 -0.2121
vn -0.0001 0.9772 -0.2122
vn 0.1485 0.9348 -0.3227
vn -0.5828 0.8015 -0.1337
vn -0.5749 0.7903 -0.2120
vn -0.5840 0.8046 -0.1076
vn -0.5573 0.7594 -0.3357
vn -0.2874 0.8971 -0.3356
vn -0.0043 0.9420 -0.3355
vn -0.4007 0.7864 -0.4701
vn -0.7597 0.5570 -0.3356
vn -0.7903 0.5749 -0.2120
vn -0.1109 0.8853 -0.4516
vn -0.8044 0.5843 -0.1076
vn -0.8015 0.5828 -0.1338
vn -0.7387 0.1170 -0.6638
vn -0.7865 0.4006 -0.4700
vn -0.9295 0.3018 -0.2122
vn -0.8973 0.2868 -0.3357
vn -0.9425 0.3064 -0.1338
vn -0.9454 0.3076 -0.1075
vn -0.8718 -0.1381 -0.4700
vn -0.9420 0.0042 -0.3356
vn -0.9772 -0.0000 -0.2122
vn -0.9910 -0.0000 -0.1339
vn -0.9942 -0.0000 -0.1074
vn -0.8947 -0.2947 -0.3357
vn -0.6241 -0.6240 -0.4702
vn -0.3788 -0.8078 -0.4517
vn -0.9295 -0.3017 -0.2122
vn -0.9425 -0.3064 -0.1338
vn -0.7648 -0.5499 -0.3357
vn -0.7903 -0.5748 -0.2120
vn -0.9454 -0.3077 -0.1074
vn -0.8015 -0.5829 -0.1337
vn -0.5506 -0.7643 -0.3357
vn -0.2941 -0.8948 -0.3358
vn -0.5749 -0.7903 -0.2118
vn -0.1462 -0.9351 -0.3229
vn -0.3019 -0.9295 -0.2120
vn -0.1515 -0.9660 -0.2096
vn -0.8044 -0.5843 -0.1075
vn -0.5828 -0.8015 -0.1337
vn -0.3064 -0.9425 -0.1338
vn -0.1543 -0.9791 -0.1323
vn -0.5843 -0.8044 -0.1075
vn -0.3078 -0.9454 -0.1074
vn -0.1564 -0.9820 -0.1061
vt 0.193500 0.165000
vt 0.356000 0.010700
vt 0.216600 0.169900
vt 0.347900 0.008800
vt 0.974600 0.664600
vt 0.967800 0.597200
vt 0.969200 0.597200
vt 0.976100 0.664600
vt 0.973100 0.989900
vt 0.936000 0.989100
vt 0.973100 0.989200
vt 0.936000 0.989700
vt 0.936000 0.581100
vt 0.936000 0.581500
vt 0.968800 0.596700
vt 0.975100 0.724400
vt 0.974100 0.724400
vt 0.974600 0.724900
vt 0.948700 0.731700
vt 0.947800 0.731400
vt 0.959000 0.735600
vt 0.959500 0.735100
vt 0.960400 0.735600
vt 0.964400 0.822300
vt 0.962900 0.822300
vt 0.963900 0.822800
vt 0.953600 0.824800
vt 0.954100 0.825400
vt 0.976600 0.867300
vt 0.952600 0.861100
vt 0.953600 0.860500
vt 0.976100 0.867900
vt 0.955100 0.824800
vt 0.954100 0.861100
vt 0.867200 0.867600
vt 0.907200 0.989700
vt 0.870100 0.989800
vt 0.890600 0.860700
vt 0.889600 0.824100
vt 0.895500 0.730000
vt 0.907200 0.578900
vt 0.884300 0.734100
vt 0.880400 0.821500
vt 0.869100 0.722700
vt 0.868200 0.662600
vt 0.875500 0.594500
vt 0.977100 0.867900
vt 0.974600 0.989200
vt 0.046200 0.284200
vt 0.020000 0.293500
vt 0.046200 0.293500
vt 0.020000 0.255900
vt 0.092100 0.255900
vt 0.185900 0.065400
vt 0.219000 0.100600
vt 0.185900 0.100600
vt 0.219000 0.065400
vt 0.092000 0.255900
vt 0.062300 0.012200
vt 0.034800 0.047900
vt 0.034800 0.012200
vt 0.062300 0.047900
vt 0.062300 0.059600
vt 0.034800 0.064500
vt 0.047900 0.074700
vt 0.147500 0.074700
vt 0.133100 0.059600
vt 0.160500 0.064500
vt 0.160500 0.047900
vt 0.133100 0.047900
vt 0.133100 0.012200
vt 0.160500 0.012200
vt 0.024100 0.189500
vt 0.076100 0.221700
vt 0.105700 0.189500
vt 0.105700 0.236300
vt 0.076100 0.236300
vt 0.147500 0.091300
vt 0.047900 0.091300
vt 0.105800 0.236300
vt 0.105800 0.189500
vt 0.149300 0.110800
vt 0.121900 0.158200
vt 0.121900 0.110800
vt 0.149300 0.163600
vt 0.136200 0.173800
vt 0.036700 0.173800
vt 0.051100 0.158200
vt 0.023600 0.163600
vt 0.023600 0.110800
vt 0.051100 0.110800
vt 0.027700 0.074700
vt 0.027700 0.091300
vt 0.160500 0.091300
vt 0.160500 0.074700
vt 0.863300 0.518100
vt 0.902800 0.567900
vt 0.874500 0.568100
vt 0.856900 0.424300
vt 0.902800 0.266100
vt 0.863300 0.357900
vt 0.875000 0.275400
vt 0.873500 0.275400
vt 0.862300 0.357900
vt 0.973600 0.357900
vt 0.934600 0.266100
vt 0.962400 0.275400
vt 0.980000 0.424300
vt 0.934600 0.567900
vt 0.974100 0.518100
vt 0.962400 0.568100
vt 0.902800 0.568400
vt 0.875000 0.568600
vt 0.874000 0.274900
vt 0.901900 0.265600
vt 0.861800 0.518100
vt 0.873500 0.568100
vt 0.856000 0.424300
vt 0.234100 0.044400
vt 0.260300 0.053200
vt 0.234100 0.053200
vt 0.260300 0.016100
vt 0.188100 0.016100
vt 0.804700 0.789900
vt 0.837900 0.825300
vt 0.804700 0.825300
vt 0.837900 0.789900
vt 0.188200 0.015600
vt 0.260300 0.015600
vt 0.052100 0.917700
vt 0.026800 0.950700
vt 0.026800 0.917700
vt 0.052100 0.950700
vt 0.052100 0.961200
vt 0.026800 0.966100
vt 0.038800 0.975300
vt 0.130500 0.975300
vt 0.117300 0.961200
vt 0.142600 0.966100
vt 0.142600 0.950700
vt 0.117300 0.950700
vt 0.117300 0.917700
vt 0.142600 0.917700
vt 0.018300 0.862200
vt 0.063000 0.889900
vt 0.088600 0.862200
vt 0.088600 0.902800
vt 0.063000 0.902800
vt 0.130500 0.990500
vt 0.038800 0.990500
vt 0.063100 0.890000
vt 0.063100 0.902800
vt 0.088600 0.862300
vt 0.018300 0.862300
vt 0.838900 0.860800
vt 0.822300 0.889500
vt 0.822300 0.860800
vt 0.838900 0.892700
vt 0.831100 0.898800
vt 0.770500 0.898800
vt 0.779300 0.889500
vt 0.762700 0.892700
vt 0.762700 0.860800
vt 0.779300 0.860800
vt 0.020200 0.975300
vt 0.020200 0.990500
vt 0.142600 0.990500
vt 0.142600 0.975300
vt 0.964400 0.011700
vt 0.778800 0.111300
vt 0.607400 0.035600
vt 0.964400 0.111300
vt 0.964400 0.112800
vt 0.778800 0.112800
vt 0.943400 0.214400
vt 0.943400 0.121600
vt 0.744600 0.121600
vt 0.792500 0.299800
vt 0.967800 0.111300
vt 0.967800 0.011700
vt 0.776400 0.112300
vt 0.605000 0.037100
vt 0.551800 0.996000
vt 0.495800 0.959600
vt 0.522500 0.953600
vt 0.472200 0.923500
vt 0.495400 0.920500
vt 0.451700 0.876600
vt 0.550300 0.951700
vt 0.518100 0.918800
vt 0.828600 0.464400
vt 0.768600 0.315400
vt 0.806600 0.315400
vt 0.786600 0.464400
vt 0.730500 0.315400
vt 0.773900 0.630900
vt 0.814000 0.632600
vt 0.745100 0.464400
vt 0.734400 0.629600
vt 0.692400 0.315400
vt 0.704100 0.464400
vt 0.755400 0.707000
vt 0.718300 0.705300
vt 0.694800 0.628400
vt 0.663600 0.464400
vt 0.793000 0.709000
vt 0.653800 0.315400
vt 0.739700 0.773200
vt 0.704600 0.771200
vt 0.681200 0.703900
vt 0.655800 0.627400
vt 0.623000 0.464400
vt 0.774900 0.775400
vt 0.615700 0.315400
vt 0.669400 0.769400
vt 0.644000 0.702600
vt 0.616700 0.626700
vt 0.577600 0.315400
vt 0.583000 0.464400
vt 0.577600 0.626200
vt 0.634300 0.767900
vt 0.606900 0.701700
vt 0.570300 0.700700
vt 0.539100 0.315400
vt 0.543000 0.464400
vt 0.539100 0.625700
vt 0.533700 0.700000
vt 0.599100 0.766600
vt 0.564000 0.765400
vt 0.528800 0.764500
vt 0.501000 0.315400
vt 0.503400 0.464400
vt 0.501000 0.625700
vt 0.497100 0.699500
vt 0.493700 0.763700
vt 0.463600 0.464400
vt 0.462400 0.625700
vt 0.460400 0.699200
vt 0.462400 0.315400
vt 0.424100 0.464400
vt 0.424100 0.626200
vt 0.458700 0.763100
vt 0.424100 0.699200
vt 0.424100 0.315400
vt 0.387700 0.699200
vt 0.385700 0.625700
vt 0.385700 0.315400
vt 0.384500 0.464400
vt 0.424100 0.762600
vt 0.389400 0.763100
vt 0.351300 0.699500
vt 0.354500 0.763700
vt 0.347400 0.625700
vt 0.347400 0.315400
vt 0.344700 0.464400
vt 0.305200 0.464400
vt 0.314700 0.700000
vt 0.319600 0.764500
vt 0.308800 0.625700
vt 0.309100 0.315400
vt 0.265100 0.464400
vt 0.270300 0.626200
vt 0.277800 0.700700
vt 0.284400 0.765400
vt 0.270800 0.315400
vt 0.225100 0.464400
vt 0.231700 0.626700
vt 0.241100 0.701700
vt 0.249400 0.766600
vt 0.232400 0.315400
vt 0.204200 0.702600
vt 0.192700 0.627400
vt 0.214100 0.767900
vt 0.194200 0.315400
vt 0.184800 0.464400
vt 0.167100 0.703900
vt 0.179000 0.769400
vt 0.153600 0.628400
vt 0.156100 0.315400
vt 0.144200 0.464400
vt 0.130000 0.705300
vt 0.143800 0.771200
vt 0.114100 0.629600
vt 0.117900 0.315400
vt 0.103200 0.464400
vt 0.061800 0.464400
vt 0.074300 0.630900
vt 0.092700 0.707000
vt 0.108600 0.773200
vt 0.079800 0.315400
vt 0.019800 0.464400
vt 0.034100 0.632600
vt 0.055200 0.709000
vt 0.073500 0.775400
vt 0.041800 0.315400
vt 0.845200 0.964000
vt 0.845200 0.939200
vt 0.849100 0.951600
vt 0.833500 0.975100
vt 0.833500 0.928000
vt 0.815900 0.919200
vt 0.815900 0.984000
vt 0.793500 0.913500
vt 0.793500 0.989700
vt 0.769000 0.991600
vt 0.769000 0.911600
vt 0.744100 0.989700
vt 0.744100 0.913500
vt 0.721700 0.919200
vt 0.721700 0.984000
vt 0.704100 0.975100
vt 0.704100 0.928000
vt 0.692900 0.964000
vt 0.692900 0.939200
vt 0.689000 0.951600
vt 0.674300 0.165000
vt 0.511700 0.010700
vt 0.519500 0.008800
vt 0.650900 0.169900
vt 0.764200 0.275900
vt 0.503400 0.012700
vt 0.732400 0.281700
vt 0.627400 0.174300
vt 0.700700 0.287600
vt 0.604000 0.178200
vt 0.495100 0.014200
vt 0.668000 0.292500
vt 0.635300 0.296900
vt 0.580100 0.181600
vt 0.486600 0.015600
vt 0.602500 0.300300
vt 0.556200 0.184600
vt 0.477800 0.016600
vt 0.531700 0.187000
vt 0.469200 0.017600
vt 0.568800 0.303200
vt 0.507300 0.189000
vt 0.460400 0.018100
vt 0.535600 0.305700
vt 0.451700 0.018600
vt 0.501500 0.307600
vt 0.482900 0.189900
vt 0.467800 0.308600
vt 0.458500 0.190900
vt 0.442600 0.019000
vt 0.433800 0.309100
vt 0.433800 0.191400
vt 0.433800 0.019000
vt 0.409200 0.190900
vt 0.424800 0.019000
vt 0.399900 0.308600
vt 0.384800 0.189900
vt 0.416000 0.018600
vt 0.366000 0.307600
vt 0.360100 0.189000
vt 0.407200 0.018100
vt 0.332300 0.305700
vt 0.298600 0.303200
vt 0.335900 0.187000
vt 0.398400 0.017600
vt 0.265400 0.300300
vt 0.311500 0.184600
vt 0.389600 0.016600
vt 0.287600 0.181600
vt 0.381100 0.015600
vt 0.232200 0.296900
vt 0.263700 0.178200
vt 0.372600 0.014200
vt 0.199500 0.292500
vt 0.240000 0.174300
vt 0.364300 0.012700
vt 0.167000 0.287600
vt 0.135000 0.281700
vt 0.103500 0.275900
vt 0.540500 0.918200
vt 0.483400 0.875600
vt 0.513700 0.875300
vt 0.543000 0.875700
vt 0.577600 0.953600
vt 0.562500 0.918600
vt 0.571300 0.876900
vt 0.584000 0.920200
vt 0.519000 0.828100
vt 0.551300 0.829200
vt 0.583000 0.830700
vt 0.455100 0.826900
vt 0.487100 0.827400
vt 0.599100 0.878800
vt 0.605000 0.922700
vt 0.560500 0.772000
vt 0.525900 0.771100
vt 0.595200 0.773100
vt 0.615200 0.832600
vt 0.627400 0.881700
vt 0.491700 0.770500
vt 0.457800 0.770100
vt 0.630900 0.774800
vt 0.647500 0.835100
vt 0.655300 0.885400
vt 0.626000 0.926400
vt 0.666500 0.777000
vt 0.679700 0.838300
vt 0.713400 0.841900
vt 0.683600 0.890100
vt 0.647000 0.931200
vt 0.603000 0.959200
vt 0.703100 0.779800
vt 0.739700 0.783300
vt 0.776400 0.787500
vt 0.747100 0.846300
vt 0.712400 0.895900
vt 0.667500 0.937300
vt 0.625000 0.968600
vt 0.423800 0.769900
vt 0.423100 0.826500
vt 0.391400 0.826400
vt 0.390100 0.769900
vt 0.390400 0.873000
vt 0.420200 0.874500
vt 0.423300 0.923100
vt 0.359600 0.826500
vt 0.361600 0.872400
vt 0.356200 0.770100
vt 0.356000 0.914400
vt 0.377900 0.916100
vt 0.400400 0.919000
vt 0.351800 0.948800
vt 0.334200 0.913600
vt 0.333500 0.872400
vt 0.378400 0.954900
vt 0.322000 0.770600
vt 0.328400 0.827100
vt 0.320300 0.991300
vt 0.323700 0.946700
vt 0.305900 0.873300
vt 0.312700 0.913900
vt 0.296900 0.828200
vt 0.287600 0.771500
vt 0.296100 0.948300
vt 0.291500 0.915200
vt 0.278600 0.874900
vt 0.265600 0.829800
vt 0.252700 0.772700
vt 0.270800 0.917400
vt 0.270300 0.953500
vt 0.246900 0.962500
vt 0.251500 0.877300
vt 0.234100 0.831900
vt 0.250000 0.920600
vt 0.224100 0.880600
vt 0.217400 0.774500
vt 0.202100 0.834700
vt 0.229600 0.924900
vt 0.209500 0.930400
vt 0.196700 0.884700
vt 0.189300 0.937000
vt 0.168800 0.889900
vt 0.140400 0.896200
vt 0.181500 0.776900
vt 0.169800 0.838000
vt 0.136700 0.842000
vt 0.102700 0.846700
vt 0.145300 0.779900
vt 0.108700 0.783600
vt 0.072100 0.788100
s 1
usemtl JDAM
f 1/1/1 2/2/2 3/3/3
f 2/2/4 1/1/5 4/4/5
f 5/5/6 6/6/7 7/7/6
f 7/7/6 8/8/8 5/5/6
f 9/9/9 10/10/10 11/11/9
f 10/10/10 9/9/9 12/12/10
f 13/13/11 6/6/12 14/14/13
f 6/6/12 13/13/11 7/15/12
f 5/5/14 15/16/14 16/17/14
f 15/16/14 5/5/14 8/8/14
f 15/18/15 17/19/16 16/17/15
f 16/17/15 17/19/16 18/20/17
f 17/19/18 19/21/19 18/20/18
f 19/21/19 17/19/18 20/22/18
f 20/23/20 21/24/20 19/21/20
f 19/21/21 21/24/21 22/25/21
f 21/26/22 23/27/23 22/25/24
f 23/27/23 21/26/22 24/28/25
f 25/29/26 26/30/27 27/31/27
f 26/30/27 25/29/26 28/32/27
f 5/5/28 14/14/28 6/6/28
f 16/17/28 14/14/28 5/5/28
f 18/20/28 14/14/28 16/17/28
f 18/20/28 10/10/29 14/14/28
f 10/10/29 18/20/28 23/27/29
f 23/27/29 18/20/28 19/21/30
f 23/27/29 19/21/30 22/25/31
f 10/10/29 23/27/29 26/30/32
f 10/10/29 26/30/32 28/32/33
f 10/10/29 28/32/33 11/11/29
f 24/33/34 26/30/35 23/27/34
f 26/30/35 24/33/34 27/34/35
f 25/35/36 12/36/37 9/37/38
f 27/38/39 12/36/37 25/35/36
f 12/36/37 27/38/39 24/39/40
f 17/40/40 12/36/37 24/39/40
f 12/36/37 17/40/40 13/41/40
f 24/39/40 20/42/40 17/40/40
f 20/42/40 24/39/40 21/43/41
f 13/41/40 17/40/40 15/44/40
f 13/41/40 15/44/40 8/45/40
f 13/41/40 8/45/40 7/46/40
f 25/47/42 9/48/43 28/32/42
f 28/32/42 9/48/43 11/11/44
f 29/49/45 30/50/45 31/51/45
f 32/52/45 30/50/45 29/49/45
f 29/49/45 33/53/45 32/52/45
f 31/54/46 34/55/46 35/56/46
f 34/55/46 31/54/46 30/57/46
f 36/58/47 37/49/47 38/52/47
f 34/50/47 38/52/47 37/49/47
f 34/50/47 37/49/47 35/51/47
f 33/59/48 39/60/49 40/61/48
f 39/60/49 33/59/48 29/62/49
f 31/63/50 39/60/49 29/62/49
f 41/64/50 39/60/49 31/63/50
f 31/63/50 42/65/50 41/64/50
f 31/63/50 43/66/50 42/65/50
f 43/66/50 31/63/50 35/67/50
f 43/66/50 35/67/50 44/68/50
f 35/67/50 45/69/51 44/68/50
f 45/69/51 35/67/50 37/70/49
f 37/70/49 36/71/48 45/69/51
f 45/69/52 36/71/52 46/72/52
f 40/73/47 39/74/47 47/75/47
f 48/76/47 47/75/47 39/74/47
f 41/77/47 48/76/47 39/74/47
f 49/78/53 50/79/53 43/66/53
f 42/65/53 43/66/53 50/79/53
f 45/74/45 51/80/45 44/77/45
f 45/74/45 52/81/45 51/80/45
f 52/81/45 45/74/45 46/73/45
f 47/82/54 30/83/54 32/84/54
f 47/82/54 48/85/54 30/83/54
f 50/86/54 30/83/54 48/85/54
f 50/86/54 49/87/54 30/83/54
f 30/83/54 49/87/54 34/88/54
f 51/89/54 34/88/54 49/87/54
f 52/90/54 34/88/54 51/89/54
f 38/91/54 34/88/54 52/90/54
f 42/65/55 50/79/56 41/92/57
f 41/92/57 50/79/56 48/93/56
f 51/94/58 43/66/59 44/95/59
f 43/66/59 51/94/58 49/78/59
f 53/96/60 54/97/61 55/98/62
f 56/99/63 54/97/61 53/96/60
f 57/100/64 54/97/61 56/99/63
f 58/101/65 57/100/64 56/99/63
f 58/101/65 59/102/66 57/100/64
f 60/103/67 58/101/68 61/104/68
f 58/101/68 60/103/67 59/102/69
f 61/105/70 62/106/71 60/107/72
f 63/108/73 62/106/71 61/105/70
f 64/109/74 62/106/71 63/108/73
f 64/109/74 63/108/73 65/110/75
f 64/109/74 65/110/75 66/111/76
f 55/98/54 54/97/54 64/112/54
f 64/112/54 66/113/54 55/98/54
f 57/100/77 59/102/78 60/114/78
f 60/114/78 62/115/77 57/100/77
f 65/116/79 55/98/80 66/117/80
f 55/98/80 65/116/79 53/96/79
f 63/118/81 53/96/82 65/116/81
f 53/96/82 63/118/81 56/99/81
f 61/104/83 56/99/83 63/118/83
f 56/99/83 61/104/83 58/101/83
f 67/119/45 68/120/45 69/121/45
f 70/122/45 68/120/45 67/119/45
f 67/119/45 71/123/45 70/122/45
f 69/124/46 72/125/46 73/126/46
f 72/125/46 69/124/46 68/127/46
f 74/128/47 75/119/47 76/129/47
f 72/120/47 76/129/47 75/119/47
f 72/120/47 75/119/47 73/121/47
f 71/130/84 77/131/85 78/132/84
f 77/131/85 71/130/84 67/133/85
f 69/134/50 77/131/85 67/133/85
f 79/135/50 77/131/85 69/134/50
f 69/134/50 80/136/50 79/135/50
f 69/134/50 81/137/50 80/136/50
f 81/137/50 69/134/50 73/138/50
f 81/137/50 73/138/50 82/139/50
f 73/138/50 83/140/85 82/139/50
f 83/140/85 73/138/50 75/141/85
f 75/141/85 74/142/84 83/140/85
f 83/140/85 74/142/84 84/143/84
f 78/144/47 77/145/47 85/146/47
f 86/147/47 85/146/47 77/145/47
f 79/148/47 86/147/47 77/145/47
f 87/149/53 88/150/53 81/137/53
f 80/136/53 81/137/53 88/150/53
f 83/151/45 89/147/45 82/152/45
f 83/151/45 90/153/45 89/147/45
f 90/153/45 83/151/45 84/154/45
f 85/155/54 68/156/54 70/157/54
f 85/155/54 86/158/54 68/156/54
f 88/159/54 68/156/54 86/158/54
f 88/159/54 87/160/54 68/156/54
f 68/156/54 87/160/54 72/161/54
f 89/162/54 72/161/54 87/160/54
f 90/163/54 72/161/54 89/162/54
f 76/164/54 72/161/54 90/163/54
f 80/136/86 88/150/87 79/165/87
f 79/165/87 88/150/87 86/166/87
f 89/167/88 81/137/89 82/168/90
f 81/137/89 89/167/88 87/149/91
f 91/6/92 92/8/93 93/7/93
f 92/8/93 91/6/92 94/5/93
f 95/10/94 96/9/95 97/11/95
f 96/9/95 95/10/94 98/12/94
f 93/15/96 99/13/97 100/14/97
f 100/14/97 91/6/96 93/15/96
f 94/5/98 101/16/99 92/8/98
f 101/16/99 94/5/98 102/17/100
f 103/19/101 102/17/102 104/20/101
f 102/17/102 103/19/101 101/18/102
f 105/22/103 103/19/104 104/20/105
f 104/20/105 106/21/105 105/22/103
f 107/24/106 105/23/107 106/21/107
f 106/21/107 108/25/108 107/24/106
f 109/27/109 107/26/110 108/25/111
f 107/26/110 109/27/109 110/28/112
f 111/29/113 112/31/114 113/30/114
f 113/30/114 114/32/113 111/29/113
f 94/5/115 91/6/115 100/14/115
f 102/17/115 94/5/115 100/14/115
f 104/20/115 102/17/115 100/14/115
f 95/10/116 104/20/115 100/14/115
f 104/20/115 95/10/116 109/27/116
f 104/20/115 109/27/116 106/21/35
f 109/27/116 108/25/117 106/21/35
f 95/10/116 113/30/118 109/27/116
f 95/10/116 114/32/119 113/30/118
f 95/10/116 97/11/116 114/32/119
f 110/33/30 113/30/28 112/34/28
f 113/30/28 110/33/30 109/27/28
f 98/36/120 111/35/121 96/37/122
f 111/35/121 98/36/120 112/38/123
f 98/36/120 110/39/124 112/38/123
f 98/36/120 103/40/124 110/39/124
f 103/40/124 98/36/120 99/41/124
f 105/42/124 110/39/124 103/40/124
f 110/39/124 105/42/124 107/43/124
f 99/41/124 101/44/124 103/40/124
f 99/41/124 92/45/124 101/44/124
f 99/41/124 93/46/124 92/45/124
f 96/48/125 111/47/126 114/32/127
f 114/32/127 97/11/125 96/48/125
f 115/96/128 116/98/129 117/97/130
f 117/97/130 118/99/131 115/96/128
f 117/97/130 119/100/132 118/99/131
f 120/101/133 118/99/131 119/100/132
f 120/101/133 119/100/132 121/102/134
f 122/103/135 120/101/136 121/102/135
f 120/101/136 122/103/135 123/104/137
f 123/105/138 122/107/139 124/106/140
f 125/108/141 123/105/138 124/106/140
f 124/106/140 126/109/142 125/108/141
f 125/108/141 126/109/142 127/110/143
f 126/109/142 128/111/144 127/110/143
f 116/98/54 126/112/54 117/97/54
f 126/112/54 116/98/54 128/113/54
f 121/102/145 119/100/146 122/114/145
f 122/114/145 119/100/146 124/115/146
f 127/116/147 128/117/148 115/96/147
f 115/96/147 128/117/148 116/98/147
f 125/118/149 127/116/149 118/99/149
f 118/99/149 127/116/149 115/96/150
f 123/104/151 118/99/151 120/101/151
f 118/99/151 123/104/151 125/118/151
f 129/169/40 130/170/152 131/171/152
f 130/170/152 129/169/40 132/172/153
f 133/173/154 134/174/154 130/170/154
f 130/170/154 132/172/154 133/173/154
f 134/175/28 133/176/28 135/177/28
f 134/175/28 135/177/28 136/178/28
f 132/172/54 129/169/54 133/179/54
f 133/179/54 129/169/54 135/180/54
f 131/171/155 134/181/156 136/182/157
f 134/181/156 131/171/155 130/170/158
f 137/169/124 138/170/159 139/171/160
f 138/170/159 137/169/124 140/172/124
f 141/173/161 142/174/162 138/170/162
f 138/170/162 140/172/163 141/173/161
f 142/175/35 141/176/35 143/177/35
f 142/175/35 143/177/35 144/178/35
f 141/179/54 137/169/54 143/180/54
f 137/169/54 141/179/54 140/172/54
f 142/181/164 139/171/165 138/170/166
f 139/171/165 142/181/164 144/182/167
f 145/169/124 146/170/168 147/172/169
f 146/170/168 145/169/124 148/171/168
f 149/174/30 150/173/170 146/170/30
f 146/170/30 150/173/170 147/172/170
f 151/178/115 152/177/115 149/175/115
f 149/175/115 152/177/115 150/176/115
f 145/169/54 150/179/54 152/180/54
f 150/179/54 145/169/54 147/172/54
f 146/170/171 148/171/172 151/182/172
f 151/182/172 149/181/173 146/170/171
f 153/169/40 154/170/174 155/172/40
f 154/170/174 153/169/40 156/171/175
f 157/174/176 158/173/177 154/170/177
f 154/170/177 158/173/177 155/172/177
f 159/178/178 160/177/178 157/175/178
f 157/175/178 160/177/178 158/176/178
f 158/179/54 160/180/54 153/169/54
f 153/169/54 155/172/54 158/179/54
f 156/171/179 157/181/180 154/170/181
f 157/181/180 156/171/179 159/182/182
f 161/183/183 162/184/184 163/185/185
f 162/184/184 164/186/186 163/185/185
f 163/185/185 164/186/186 165/187/187
f 164/186/186 166/188/188 165/187/187
f 161/183/183 163/185/185 167/189/189
f 163/185/190 165/187/190 168/190/190
f 169/191/191 170/192/192 171/193/193
f 172/194/194 170/192/192 169/191/191
f 172/194/194 173/195/195 170/192/192
f 169/191/191 174/196/196 172/194/194
f 174/196/196 169/191/191 175/197/197
f 176/198/198 173/195/195 172/194/194
f 172/194/194 177/199/199 176/198/198
f 177/199/199 172/194/194 174/196/196
f 178/200/200 173/195/195 176/198/198
f 179/201/201 178/200/200 176/198/198
f 177/199/199 179/201/201 176/198/198
f 175/197/197 180/202/202 174/196/196
f 174/196/196 181/203/203 177/199/199
f 181/203/203 174/196/196 180/202/202
f 182/204/204 177/199/199 181/203/203
f 182/204/204 179/201/201 177/199/199
f 183/205/205 178/200/200 179/201/201
f 182/204/204 183/205/205 179/201/201
f 180/202/202 175/197/197 184/206/206
f 178/200/200 183/205/205 185/207/207
f 184/206/206 186/208/208 180/202/202
f 180/202/202 187/209/209 181/203/203
f 187/209/209 180/202/202 186/208/208
f 188/210/210 182/204/204 181/203/203
f 187/209/209 188/210/210 181/203/203
f 188/210/210 189/211/211 182/204/204
f 189/211/211 183/205/205 182/204/204
f 190/212/212 185/207/207 183/205/205
f 189/211/211 190/212/212 183/205/205
f 186/208/208 184/206/206 191/213/213
f 185/207/207 190/212/212 192/214/214
f 193/215/215 188/210/210 187/209/209
f 194/216/216 189/211/211 188/210/210
f 193/215/215 194/216/216 188/210/210
f 194/216/216 195/217/217 189/211/211
f 195/217/217 190/212/212 189/211/211
f 190/212/212 196/218/218 192/214/214
f 197/219/219 196/218/218 190/212/212
f 190/212/212 198/220/220 197/219/219
f 198/220/220 190/212/212 195/217/217
f 199/221/221 194/216/216 193/215/215
f 200/222/222 195/217/217 194/216/216
f 199/221/221 200/222/222 194/216/216
f 201/223/223 195/217/217 200/222/222
f 195/217/217 201/223/223 198/220/220
f 197/219/219 202/224/224 196/218/218
f 203/225/225 202/224/224 197/219/219
f 197/219/219 204/226/226 203/225/225
f 204/226/226 197/219/219 198/220/220
f 205/227/227 198/220/220 201/223/223
f 198/220/220 205/227/227 204/226/226
f 206/228/228 200/222/222 199/221/221
f 207/229/229 200/222/222 206/228/228
f 200/222/222 207/229/229 201/223/223
f 208/230/230 201/223/223 207/229/229
f 201/223/223 208/230/230 205/227/227
f 209/231/231 202/224/224 203/225/225
f 210/232/232 209/231/231 203/225/225
f 203/225/225 211/233/233 210/232/232
f 211/233/233 203/225/225 204/226/226
f 212/234/234 204/226/226 205/227/227
f 204/226/226 212/234/234 211/233/233
f 213/235/235 205/227/227 208/230/230
f 205/227/227 213/235/235 212/234/234
f 214/236/236 209/231/231 210/232/232
f 211/233/233 214/236/236 210/232/232
f 212/234/234 215/237/237 211/233/233
f 215/237/237 214/236/236 211/233/233
f 216/238/238 215/237/237 212/234/234
f 213/235/235 216/238/238 212/234/234
f 209/231/231 214/236/236 217/239/239
f 218/240/240 217/239/239 214/236/236
f 215/237/237 218/240/240 214/236/236
f 216/238/238 219/241/241 215/237/237
f 219/241/241 218/240/240 215/237/237
f 220/242/242 216/238/238 213/235/235
f 221/243/243 219/241/241 216/238/238
f 220/242/242 221/243/243 216/238/238
f 217/239/239 218/240/240 222/244/244
f 223/245/245 219/241/241 221/243/243
f 224/246/246 218/240/240 219/241/241
f 219/241/241 223/245/245 224/246/246
f 218/240/240 225/247/247 222/244/244
f 226/248/248 225/247/247 218/240/240
f 218/240/240 224/246/246 226/248/248
f 227/249/249 221/243/243 220/242/242
f 228/250/250 221/243/243 227/249/249
f 221/243/243 228/250/250 223/245/245
f 229/251/251 224/246/246 223/245/245
f 223/245/245 230/252/252 229/251/251
f 230/252/252 223/245/245 228/250/250
f 224/246/246 229/251/251 231/253/253
f 231/253/253 226/248/248 224/246/246
f 226/248/248 232/254/254 225/247/247
f 233/255/255 232/254/254 226/248/248
f 226/248/248 231/253/253 233/255/255
f 234/256/256 232/254/254 233/255/255
f 231/253/253 234/256/256 233/255/255
f 235/257/257 231/253/253 229/251/251
f 229/251/251 236/258/258 235/257/257
f 236/258/258 229/251/251 230/252/252
f 231/253/253 235/257/257 237/259/259
f 237/259/259 234/256/256 231/253/253
f 232/254/254 234/256/256 238/260/260
f 239/261/261 238/260/260 234/256/256
f 237/259/259 239/261/261 234/256/256
f 235/257/257 240/262/262 237/259/259
f 240/262/262 239/261/261 237/259/259
f 241/263/263 240/262/262 235/257/257
f 236/258/258 241/263/263 235/257/257
f 242/264/264 241/263/263 236/258/258
f 238/260/260 239/261/261 243/265/265
f 244/266/266 243/265/265 239/261/261
f 240/262/262 244/266/266 239/261/261
f 241/263/263 245/267/267 240/262/262
f 245/267/267 244/266/266 240/262/262
f 246/268/268 245/267/267 241/263/263
f 242/264/264 246/268/268 241/263/263
f 247/269/269 246/268/268 242/264/264
f 243/265/265 244/266/266 248/270/270
f 249/271/271 245/267/267 246/268/268
f 250/272/272 244/266/266 245/267/267
f 245/267/267 249/271/271 250/272/272
f 251/273/273 246/268/268 247/269/269
f 246/268/268 251/273/273 249/271/271
f 244/266/266 252/274/274 248/270/270
f 253/275/275 252/274/274 244/266/266
f 244/266/266 250/272/272 253/275/275
f 254/276/276 250/272/272 249/271/271
f 249/271/271 255/277/277 254/276/276
f 255/277/277 249/271/271 251/273/273
f 250/272/272 254/276/276 256/278/278
f 256/278/278 253/275/275 250/272/272
f 253/275/275 257/279/279 252/274/274
f 258/280/280 257/279/279 253/275/275
f 253/275/275 256/278/278 258/280/280
f 259/281/281 256/278/278 254/276/276
f 254/276/276 260/282/282 259/281/281
f 260/282/282 254/276/276 255/277/277
f 256/278/278 259/281/281 261/283/283
f 261/283/283 258/280/280 256/278/278
f 262/284/284 257/279/279 258/280/280
f 263/285/285 262/284/284 258/280/280
f 258/280/280 261/283/283 263/285/285
f 264/286/286 262/284/284 263/285/285
f 261/283/283 264/286/286 263/285/285
f 259/281/281 265/287/287 261/283/283
f 265/287/287 264/286/286 261/283/283
f 266/288/288 265/287/287 259/281/281
f 260/282/282 266/288/288 259/281/281
f 267/289/289 266/288/288 260/282/282
f 262/284/284 264/286/286 268/290/290
f 169/291/291 268/290/290 264/286/286
f 265/287/287 169/291/291 264/286/286
f 266/288/288 175/292/292 265/287/287
f 175/292/292 169/291/291 265/287/287
f 184/293/293 175/292/292 266/288/288
f 267/289/289 184/293/293 266/288/288
f 191/294/294 184/293/293 267/289/289
f 268/290/290 169/291/291 171/295/295
f 269/296/54 270/297/54 271/298/54
f 272/299/54 270/297/54 269/296/54
f 272/299/54 273/300/54 270/297/54
f 272/299/54 274/301/54 273/300/54
f 274/301/54 272/299/54 275/302/54
f 275/302/54 276/303/54 274/301/54
f 277/304/54 276/303/54 275/302/54
f 276/303/54 277/304/54 278/305/54
f 278/305/54 4/306/54 276/303/54
f 279/307/54 4/306/54 278/305/54
f 4/306/54 279/307/54 2/308/54
f 2/308/54 279/307/54 280/309/54
f 280/309/54 279/307/54 281/310/54
f 280/309/54 281/310/54 282/311/54
f 280/309/54 282/311/54 283/312/54
f 283/312/54 282/311/54 284/313/54
f 283/312/54 284/313/54 285/314/54
f 285/314/54 284/313/54 286/315/54
f 1/316/296 276/317/297 4/318/298
f 287/319/299 276/317/297 1/316/296
f 171/320/300 287/319/299 1/316/296
f 287/319/299 274/321/301 276/317/297
f 170/322/302 287/319/299 171/320/300
f 170/322/302 288/323/303 287/319/299
f 288/323/303 274/321/301 287/319/299
f 173/324/304 288/323/303 170/322/302
f 173/324/304 289/325/305 288/323/303
f 289/325/305 274/321/301 288/323/303
f 274/321/301 289/325/305 273/326/306
f 178/327/307 289/325/305 173/324/304
f 185/328/308 289/325/305 178/327/307
f 290/329/309 273/326/306 289/325/305
f 289/325/305 185/328/308 290/329/309
f 273/326/306 290/329/309 270/330/310
f 192/331/311 290/329/309 185/328/308
f 290/329/309 192/331/311 291/332/312
f 291/332/312 270/330/310 290/329/309
f 270/330/310 291/332/312 271/333/313
f 192/331/311 292/334/314 291/332/312
f 291/332/312 269/335/315 271/333/313
f 292/334/314 269/335/315 291/332/312
f 196/336/316 292/334/314 192/331/311
f 196/336/316 293/337/317 292/334/314
f 292/334/314 272/338/318 269/335/315
f 293/337/317 272/338/318 292/334/314
f 202/339/319 293/337/317 196/336/316
f 293/337/317 275/340/320 272/338/318
f 209/341/321 293/337/317 202/339/319
f 294/342/322 275/340/320 293/337/317
f 293/337/317 209/341/321 294/342/322
f 217/343/323 294/342/322 209/341/321
f 294/342/322 217/343/323 295/344/324
f 295/344/324 275/340/320 294/342/322
f 275/340/320 295/344/324 277/345/325
f 222/346/326 295/344/324 217/343/323
f 295/344/324 222/346/326 296/347/327
f 296/347/327 277/345/325 295/344/324
f 277/345/325 296/347/327 278/348/328
f 222/346/326 297/349/329 296/347/327
f 296/347/327 279/350/330 278/348/328
f 297/349/329 279/350/330 296/347/327
f 225/351/331 297/349/329 222/346/326
f 225/351/331 298/352/332 297/349/329
f 297/349/329 281/353/333 279/350/330
f 298/352/332 281/353/333 297/349/329
f 232/354/334 298/352/332 225/351/331
f 232/354/334 299/355/335 298/352/332
f 298/352/332 282/356/336 281/353/333
f 299/355/335 282/356/336 298/352/332
f 238/357/337 299/355/335 232/354/334
f 243/358/338 299/355/335 238/357/337
f 300/359/339 282/356/336 299/355/335
f 299/355/335 243/358/338 300/359/339
f 282/356/336 300/359/339 284/360/340
f 248/361/341 300/359/339 243/358/338
f 300/359/339 248/361/341 301/362/342
f 301/362/342 284/360/340 300/359/339
f 284/360/340 301/362/342 286/363/343
f 248/361/341 302/364/344 301/362/342
f 301/362/342 285/365/345 286/363/343
f 302/364/344 285/365/345 301/362/342
f 252/366/346 302/364/344 248/361/341
f 252/366/346 303/367/347 302/364/344
f 302/364/344 283/368/348 285/365/345
f 303/367/347 283/368/348 302/364/344
f 257/369/349 303/367/347 252/366/346
f 257/369/349 304/370/350 303/367/347
f 304/370/350 283/368/348 303/367/347
f 283/368/348 304/370/350 280/371/351
f 262/372/352 304/370/350 257/369/349
f 268/373/353 304/370/350 262/372/352
f 3/3/3 280/371/351 304/370/350
f 304/370/350 268/373/353 3/3/3
f 280/371/351 3/3/3 2/2/2
f 171/374/354 3/3/3 268/373/353
f 3/3/355 171/374/355 1/1/355
f 305/375/356 163/185/185 168/190/357
f 163/185/185 305/375/356 167/189/189
f 165/187/187 166/188/188 306/376/358
f 307/377/359 165/187/187 306/376/358
f 165/187/187 307/377/359 168/190/357
f 168/190/357 308/378/360 305/375/356
f 308/378/360 168/190/357 307/377/359
f 161/183/183 167/189/189 309/379/361
f 167/189/189 305/375/356 310/380/362
f 167/189/189 310/380/362 309/379/361
f 305/375/356 311/381/363 310/380/362
f 311/381/363 305/375/356 308/378/360
f 310/380/362 311/381/363 312/382/364
f 309/379/361 310/380/362 312/382/364
f 306/376/358 313/383/365 307/377/359
f 314/384/366 307/377/359 313/383/365
f 307/377/359 314/384/366 308/378/360
f 308/378/360 315/385/367 311/381/363
f 315/385/367 308/378/360 314/384/366
f 166/188/188 316/386/368 306/376/358
f 313/383/365 306/376/358 317/387/369
f 306/376/358 316/386/368 317/387/369
f 311/381/363 315/385/367 318/388/370
f 312/382/364 311/381/363 318/388/370
f 312/382/364 318/388/370 319/389/371
f 309/379/361 312/382/364 319/389/371
f 313/383/365 207/390/372 314/384/366
f 317/387/369 208/391/373 313/383/365
f 207/390/372 313/383/365 208/391/373
f 314/384/366 206/392/374 315/385/367
f 206/392/374 314/384/366 207/390/372
f 315/385/367 206/392/374 320/393/375
f 318/388/370 315/385/367 320/393/375
f 318/388/370 320/393/375 321/394/376
f 319/389/371 318/388/370 321/394/376
f 208/391/373 317/387/369 213/395/377
f 220/396/378 213/395/377 317/387/369
f 316/386/368 220/396/378 317/387/369
f 320/393/375 206/392/374 199/397/379
f 320/393/375 199/397/379 322/398/380
f 321/394/376 320/393/375 322/398/380
f 321/394/376 322/398/380 323/399/381
f 324/400/382 321/394/376 323/399/381
f 319/389/371 321/394/376 324/400/382
f 324/400/382 309/379/361 319/389/371
f 199/397/379 193/401/383 322/398/380
f 322/398/380 193/401/383 325/402/384
f 323/399/381 322/398/380 325/402/384
f 326/403/385 323/399/381 325/402/384
f 323/399/381 326/403/385 327/404/386
f 327/404/386 324/400/382 323/399/381
f 324/400/382 327/404/386 328/405/387
f 309/379/361 324/400/382 329/406/388
f 329/406/388 324/400/382 328/405/387
f 161/183/183 309/379/361 329/406/388
f 193/401/383 187/407/389 325/402/384
f 325/402/384 186/408/390 326/403/385
f 186/408/390 325/402/384 187/407/389
f 191/409/391 326/403/385 186/408/390
f 326/403/385 191/409/391 330/410/392
f 330/410/392 327/404/386 326/403/385
f 327/404/386 330/410/392 331/411/393
f 331/411/393 328/405/387 327/404/386
f 328/405/387 331/411/393 332/412/394
f 332/412/394 329/406/388 328/405/387
f 161/183/183 329/406/388 333/413/395
f 329/406/388 332/412/394 333/413/395
f 316/386/368 227/414/396 220/396/378
f 334/415/397 227/414/396 316/386/368
f 166/188/188 334/415/397 316/386/368
f 335/416/398 227/414/396 334/415/397
f 227/414/396 335/416/398 228/417/399
f 334/415/397 336/418/400 335/416/398
f 336/418/400 334/415/397 337/419/401
f 337/419/401 334/415/397 166/188/188
f 164/420/402 337/419/401 166/188/188
f 338/421/403 228/417/399 335/416/398
f 335/416/398 339/422/404 338/421/403
f 339/422/404 335/416/398 336/418/400
f 228/417/399 338/421/403 230/423/405
f 336/418/400 340/424/406 339/422/404
f 340/424/406 336/418/400 341/425/407
f 337/419/401 341/425/407 336/418/400
f 341/425/407 337/419/401 342/426/408
f 342/426/408 337/419/401 164/420/402
f 342/426/408 343/427/409 341/425/407
f 343/427/409 340/424/406 341/425/407
f 344/428/410 339/422/404 340/424/406
f 343/427/409 344/428/410 340/424/406
f 345/429/411 338/421/403 339/422/404
f 339/422/404 344/428/410 345/429/411
f 162/430/412 342/426/408 164/420/402
f 343/427/409 342/426/408 162/430/412
f 236/431/413 230/423/405 338/421/403
f 346/432/414 236/431/413 338/421/403
f 338/421/403 345/429/411 346/432/414
f 161/433/415 343/427/409 162/430/412
f 161/433/415 347/434/416 343/427/409
f 347/434/416 344/428/410 343/427/409
f 344/428/410 348/435/417 345/429/411
f 349/436/418 348/435/417 344/428/410
f 347/434/416 349/436/418 344/428/410
f 348/435/417 350/437/419 345/429/411
f 345/429/411 350/437/419 346/432/414
f 350/437/419 242/438/420 346/432/414
f 242/438/420 236/431/413 346/432/414
f 161/433/415 351/439/421 347/434/416
f 347/434/416 352/440/422 349/436/418
f 351/439/421 352/440/422 347/434/416
f 352/440/422 353/441/423 349/436/418
f 349/436/418 353/441/423 348/435/417
f 353/441/423 354/442/424 348/435/417
f 348/435/417 354/442/424 350/437/419
f 354/442/424 247/443/425 350/437/419
f 350/437/419 247/443/425 242/438/420
f 355/444/426 353/441/423 352/440/422
f 351/439/421 355/444/426 352/440/422
f 161/433/415 356/445/427 351/439/421
f 356/445/427 355/444/426 351/439/421
f 161/433/415 333/446/428 356/445/427
f 357/447/429 354/442/424 353/441/423
f 353/441/423 355/444/426 357/447/429
f 358/448/430 247/443/425 354/442/424
f 354/442/424 357/447/429 358/448/430
f 359/449/431 357/447/429 355/444/426
f 355/444/426 356/445/427 359/449/431
f 360/450/432 358/448/430 357/447/429
f 357/447/429 359/449/431 360/450/432
f 247/443/425 358/448/430 251/451/433
f 361/452/434 251/451/433 358/448/430
f 358/448/430 360/450/432 361/452/434
f 362/453/435 360/450/432 359/449/431
f 356/445/427 362/453/435 359/449/431
f 333/446/428 363/454/436 356/445/427
f 356/445/427 363/454/436 362/453/435
f 364/455/437 361/452/434 360/450/432
f 360/450/432 362/453/435 364/455/437
f 333/446/428 332/456/438 363/454/436
f 363/454/436 365/457/439 362/453/435
f 362/453/435 365/457/439 364/455/437
f 332/456/438 331/458/440 363/454/436
f 363/454/436 331/458/440 365/457/439
f 251/451/433 361/452/434 255/459/441
f 366/460/442 255/459/441 361/452/434
f 361/452/434 364/455/437 366/460/442
f 365/457/439 367/461/443 364/455/437
f 364/455/437 367/461/443 366/460/442
f 331/458/440 330/462/444 365/457/439
f 365/457/439 330/462/444 367/461/443
f 255/459/441 366/460/442 260/463/445
f 367/461/443 267/464/446 366/460/442
f 267/464/446 260/463/445 366/460/442
f 330/462/444 191/465/447 367/461/443
f 367/461/443 191/465/447 267/464/446
