# Blender 5.1.2
# www.blender.org
mtllib JDAM.mtl
o JDAM
v -0.000028 -0.229366 1.388563
v -0.019886 -0.108757 2.167613
v -0.056204 -0.220422 1.388563
v -0.000028 -0.111864 2.167613
v -0.212025 0.165748 -0.460188
v -0.203206 0.156929 -0.656442
v -0.204574 0.155562 -0.656442
v -0.213393 0.164381 -0.460188
v -0.218981 0.169972 0.486048
v -0.179235 0.132957 0.486296
v -0.217491 0.171336 0.486048
v -0.180599 0.131590 0.486296
v -0.171533 0.122524 -0.701655
v -0.170166 0.123888 -0.701655
v -0.213765 0.164754 -0.286046
v -0.212398 0.166121 -0.286046
v -0.187059 0.138050 -0.264931
v -0.185692 0.139415 -0.264931
v -0.197368 0.151090 -0.253005
v -0.198735 0.149726 -0.253005
v -0.204574 0.155562 -0.000484
v -0.203206 0.157054 -0.000484
v -0.193641 0.147364 0.007215
v -0.195009 0.145997 0.007215
v -0.218859 0.169972 0.132481
v -0.193641 0.147364 0.113044
v -0.195009 0.145997 0.113044
v -0.217491 0.171336 0.132481
v 0.016600 0.236299 -0.495465
v 0.016600 0.246981 -0.480064
v 0.016600 0.246981 -0.495465
v 0.016600 0.202637 -0.480064
v 0.016600 0.202637 -0.522294
v -0.016596 0.246981 -0.480064
v -0.016596 0.246981 -0.495465
v -0.016596 0.202637 -0.522294
v -0.016596 0.236299 -0.495465
v -0.016596 0.202637 -0.480064
v 0.029454 0.236299 -0.495465
v 0.029454 0.202637 -0.522294
v 0.029454 0.251701 -0.495465
v 0.023323 0.261391 -0.495465
v -0.023319 0.261391 -0.495465
v -0.029451 0.251701 -0.495465
v -0.029451 0.236299 -0.495465
v -0.029451 0.202637 -0.522294
v 0.029454 0.202637 -0.480064
v 0.029454 0.251701 -0.480064
v -0.023319 0.261391 -0.480064
v 0.023323 0.261391 -0.480064
v -0.029451 0.251701 -0.480064
v -0.029451 0.202637 -0.480064
v 0.233146 -0.279176 0.294141
v 0.180232 -0.226387 0.491016
v 0.218987 -0.265139 0.491016
v 0.237741 -0.283895 -0.075135
v 0.168060 -0.214087 -0.696191
v 0.226439 -0.272468 -0.334985
v 0.207061 -0.253216 -0.660914
v 0.205571 -0.254705 -0.660914
v 0.224949 -0.273958 -0.334985
v 0.166568 -0.215580 -0.696191
v 0.236251 -0.285385 -0.075135
v 0.178742 -0.227876 0.491016
v 0.231656 -0.280665 0.294141
v 0.217495 -0.266629 0.491016
v 0.016600 0.246485 0.341590
v 0.016600 0.257167 0.357116
v 0.016600 0.257167 0.341590
v 0.016600 0.212823 0.357116
v 0.016600 0.212823 0.314513
v -0.016596 0.257167 0.357116
v -0.016596 0.257167 0.341590
v -0.016596 0.212823 0.314513
v -0.016596 0.246485 0.341590
v -0.016596 0.212823 0.357116
v 0.029457 0.246485 0.341590
v 0.029457 0.212823 0.314513
v 0.029457 0.262135 0.341590
v 0.023323 0.271577 0.341590
v -0.023319 0.271577 0.341590
v -0.029451 0.262135 0.341590
v -0.029451 0.246485 0.341590
v -0.029451 0.212823 0.314513
v 0.029457 0.212823 0.357116
v 0.029457 0.262135 0.357116
v -0.023319 0.271577 0.357116
v 0.023323 0.271577 0.357116
v -0.029451 0.262135 0.357116
v -0.029451 0.212823 0.357116
v 0.203210 0.156929 -0.656442
v 0.213396 0.164381 -0.460188
v 0.204577 0.155562 -0.656442
v 0.212031 0.165748 -0.460188
v 0.179238 0.132957 0.486296
v 0.218987 0.169972 0.486048
v 0.217495 0.171336 0.486048
v 0.180605 0.131590 0.486296
v 0.171538 0.122524 -0.701655
v 0.170171 0.123888 -0.701655
v 0.213769 0.164754 -0.286046
v 0.212402 0.166121 -0.286046
v 0.187065 0.138050 -0.264931
v 0.185698 0.139415 -0.264931
v 0.198740 0.149726 -0.253005
v 0.197373 0.151090 -0.253005
v 0.204577 0.155562 -0.000484
v 0.203210 0.157054 -0.000484
v 0.193648 0.147364 0.007215
v 0.195013 0.145997 0.007215
v 0.218862 0.169972 0.132481
v 0.195013 0.145997 0.113044
v 0.193648 0.147364 0.113044
v 0.217495 0.171336 0.132481
v -0.233140 -0.279176 0.294141
v -0.218981 -0.265139 0.491016
v -0.180228 -0.226387 0.491016
v -0.237737 -0.283895 -0.075135
v -0.168055 -0.214087 -0.696191
v -0.226435 -0.272468 -0.334985
v -0.207058 -0.253216 -0.660914
v -0.205567 -0.254705 -0.660914
v -0.224943 -0.273958 -0.334985
v -0.166565 -0.215580 -0.696191
v -0.236247 -0.285385 -0.075135
v -0.178736 -0.227876 0.491016
v -0.231651 -0.280665 0.294141
v -0.217491 -0.266629 0.491016
v -0.044218 -0.006928 2.132834
v -0.240595 0.189472 1.873483
v -0.091356 0.040265 1.634005
v -0.240595 0.189472 2.132834
v -0.236991 0.193075 2.132834
v -0.236991 0.193075 1.873483
v -0.040615 -0.003319 2.132834
v -0.087753 0.043834 1.634005
v -0.040615 -0.091740 2.132834
v -0.236991 -0.288117 1.873483
v -0.087753 -0.138941 1.634005
v -0.236991 -0.288117 2.132834
v -0.240595 -0.284639 2.132834
v -0.240595 -0.284639 1.873483
v -0.044218 -0.088140 2.132834
v -0.091356 -0.135338 1.634005
v 0.044221 -0.006928 2.132834
v 0.240598 0.189472 1.873483
v 0.240598 0.189472 2.132834
v 0.091359 0.040265 1.634005
v 0.236997 0.193075 1.873483
v 0.236997 0.193075 2.132834
v 0.087757 0.043834 1.634005
v 0.040619 -0.003319 2.132834
v 0.040619 -0.091740 2.132834
v 0.236997 -0.288117 1.873483
v 0.236997 -0.288117 2.132834
v 0.087757 -0.138941 1.634005
v 0.240598 -0.284639 1.873483
v 0.240598 -0.284639 2.132834
v 0.091359 -0.135338 1.634005
v 0.044221 -0.088140 2.132834
v -0.000028 -0.047522 -1.801169
v 0.012618 0.032096 -1.670003
v 0.057016 0.009491 -1.670003
v 0.040558 0.077248 -1.556723
v 0.077137 0.058617 -1.556723
v 0.053877 0.118299 -1.402702
v 0.079621 -0.034915 -1.670003
v 0.106140 0.029581 -1.556723
v -0.000028 -0.317185 0.265512
v 0.074591 -0.277188 0.857438
v -0.000028 -0.288863 0.857438
v 0.083287 -0.304017 0.265512
v 0.141975 -0.242904 0.857438
v 0.080740 -0.296067 -0.408518
v -0.000028 -0.308736 -0.408518
v 0.158496 -0.265637 0.265512
v 0.153651 -0.258929 -0.408518
v 0.195385 -0.189494 0.857438
v 0.218116 -0.206015 0.265512
v 0.075460 -0.279671 -0.721528
v 0.143590 -0.245141 -0.721528
v 0.211410 -0.201170 -0.408518
v 0.256372 -0.130806 0.265512
v -0.000028 -0.291845 -0.721528
v 0.229668 -0.122110 0.857438
v 0.070865 -0.265637 -0.993303
v 0.134772 -0.233092 -0.993303
v 0.197622 -0.191109 -0.721528
v 0.248547 -0.128260 -0.408518
v 0.269541 -0.047522 0.265512
v -0.000028 -0.276940 -0.993303
v 0.241469 -0.047522 0.857438
v 0.185572 -0.182291 -0.993303
v 0.232277 -0.122979 -0.721528
v 0.261343 -0.047522 -0.408518
v 0.229668 0.027066 0.857438
v 0.256372 0.035793 0.265512
v 0.248547 0.033215 -0.408518
v 0.218116 -0.118384 -0.993303
v 0.244201 -0.047522 -0.721528
v 0.232277 0.027937 -0.721528
v 0.195385 0.094390 0.857438
v 0.218116 0.110971 0.265512
v 0.211410 0.106126 -0.408518
v 0.197622 0.096002 -0.721528
v 0.229420 -0.047522 -0.993303
v 0.218116 0.023340 -0.993303
v 0.185572 0.087309 -0.993303
v 0.141975 0.147863 0.857438
v 0.158496 0.170593 0.265512
v 0.153651 0.163885 -0.408518
v 0.143590 0.150096 -0.721528
v 0.134772 0.138050 -0.993303
v 0.083287 0.208849 0.265512
v 0.080740 0.201025 -0.408518
v 0.075460 0.184752 -0.721528
v 0.074591 0.182143 0.857438
v -0.000028 0.222015 0.265512
v -0.000028 0.213817 -0.408518
v 0.070865 0.170593 -0.993303
v -0.000028 0.196676 -0.721528
v -0.000028 0.193944 0.857438
v -0.075456 0.184752 -0.721528
v -0.080735 0.201025 -0.408518
v -0.074588 0.182143 0.857438
v -0.083281 0.208849 0.265512
v -0.000028 0.181895 -0.993303
v -0.070859 0.170593 -0.993303
v -0.143584 0.150096 -0.721528
v -0.134766 0.138050 -0.993303
v -0.153647 0.163885 -0.408518
v -0.141971 0.147863 0.857438
v -0.158490 0.170593 0.265512
v -0.218112 0.110971 0.265512
v -0.197618 0.096002 -0.721528
v -0.185569 0.087309 -0.993303
v -0.211404 0.106126 -0.408518
v -0.195382 0.094390 0.857438
v -0.256369 0.035793 0.265512
v -0.248544 0.033215 -0.408518
v -0.232272 0.027937 -0.721528
v -0.218112 0.023340 -0.993303
v -0.229663 0.027066 0.857438
v -0.269534 -0.047522 0.265512
v -0.261336 -0.047522 -0.408518
v -0.244195 -0.047522 -0.721528
v -0.229414 -0.047522 -0.993303
v -0.241463 -0.047522 0.857438
v -0.232272 -0.122979 -0.721528
v -0.248544 -0.128260 -0.408518
v -0.218112 -0.118384 -0.993303
v -0.229663 -0.122110 0.857438
v -0.256369 -0.130806 0.265512
v -0.197618 -0.191109 -0.721528
v -0.185569 -0.182291 -0.993303
v -0.211404 -0.201170 -0.408518
v -0.195382 -0.189494 0.857438
v -0.218112 -0.206015 0.265512
v -0.143584 -0.245141 -0.721528
v -0.134766 -0.233092 -0.993303
v -0.153647 -0.258929 -0.408518
v -0.141971 -0.242904 0.857438
v -0.158490 -0.265637 0.265512
v -0.083281 -0.304017 0.265512
v -0.080735 -0.296067 -0.408518
v -0.075456 -0.279671 -0.721528
v -0.070859 -0.265637 -0.993303
v -0.074588 -0.277188 0.857438
v 0.061206 -0.027641 2.167613
v 0.061206 -0.067427 2.167613
v 0.064343 -0.047522 2.167613
v 0.052078 -0.009698 2.167613
v 0.052078 -0.085374 2.167613
v 0.037824 -0.099628 2.167613
v 0.037824 0.004539 2.167613
v 0.019892 -0.108757 2.167613
v 0.019892 0.013684 2.167613
v -0.000028 0.016851 2.167613
v -0.019886 0.013684 2.167613
v -0.037821 -0.099628 2.167613
v -0.037821 0.004539 2.167613
v -0.052074 -0.009698 2.167613
v -0.052074 -0.085374 2.167613
v -0.061203 -0.027641 2.167613
v -0.061203 -0.067427 2.167613
v -0.064339 -0.047522 2.167613
v 0.056208 -0.220422 1.388563
v 0.106886 -0.194712 1.388563
v 0.147068 -0.154468 1.388563
v 0.172903 -0.103726 1.388563
v 0.181847 -0.047522 1.388563
v 0.172903 0.008667 1.388563
v 0.147068 0.059361 1.388563
v 0.106886 0.099606 1.388563
v 0.056208 0.125381 1.388563
v -0.000028 0.134322 1.388563
v -0.056204 0.125381 1.388563
v -0.106880 0.099606 1.388563
v -0.147062 0.059361 1.388563
v -0.172900 0.008667 1.388563
v -0.181844 -0.047522 1.388563
v -0.172900 -0.103726 1.388563
v -0.147062 -0.154468 1.388563
v -0.106880 -0.194712 1.388563
v 0.124771 -0.006983 -1.556723
v 0.102476 0.093458 -1.402702
v 0.140981 0.054951 -1.402702
v 0.165825 0.006339 -1.402702
v 0.071859 -0.084133 -1.670003
v 0.131168 -0.047522 -1.556723
v 0.174270 -0.047522 -1.402702
v 0.124771 -0.088078 -1.556723
v 0.165079 0.072466 -1.222844
v 0.194144 0.015547 -1.222844
v 0.204081 -0.047522 -1.222844
v 0.063070 0.146618 -1.222844
v 0.119992 0.117553 -1.222844
v 0.165825 -0.101368 -1.402702
v 0.106140 -0.124657 -1.556723
v 0.194144 -0.110620 -1.222844
v 0.140981 -0.149996 -1.402702
v 0.165079 -0.167510 -1.222844
v 0.102476 -0.188500 -1.402702
v 0.077137 -0.153722 -1.556723
v 0.119992 -0.212598 -1.222844
v 0.063070 -0.241663 -1.222844
v 0.053877 -0.213344 -1.402702
v 0.040558 -0.172353 -1.556723
v 0.036614 -0.119379 -1.670003
v -0.000028 -0.251601 -1.222844
v -0.000028 -0.221789 -1.402702
v -0.000028 -0.178688 -1.556723
v -0.012611 -0.127141 -1.670003
v -0.000028 0.156556 -1.222844
v -0.063066 0.146618 -1.222844
v -0.053874 0.118299 -1.402702
v -0.000028 0.126745 -1.402702
v -0.119985 0.117553 -1.222844
v -0.102471 0.093458 -1.402702
v -0.077131 0.058617 -1.556723
v -0.040552 0.077248 -1.556723
v -0.000028 0.083706 -1.556723
v -0.036610 0.024303 -1.670003
v -0.106137 0.029581 -1.556723
v -0.140978 0.054951 -1.402702
v -0.165075 0.072466 -1.222844
v -0.071853 -0.010928 -1.670003
v -0.165818 0.006339 -1.402702
v -0.124767 -0.006983 -1.556723
v -0.194140 0.015547 -1.222844
v -0.079618 -0.060129 -1.670003
v -0.131165 -0.047522 -1.556723
v -0.174264 -0.047522 -1.402702
v -0.204075 -0.047522 -1.222844
v -0.124767 -0.088078 -1.556723
v -0.057010 -0.104536 -1.670003
v -0.165818 -0.101368 -1.402702
v -0.194140 -0.110620 -1.222844
v -0.106137 -0.124657 -1.556723
v -0.140978 -0.149996 -1.402702
v -0.165075 -0.167510 -1.222844
v -0.077131 -0.153722 -1.556723
v -0.040552 -0.172353 -1.556723
v -0.102471 -0.188500 -1.402702
v -0.053874 -0.213344 -1.402702
v -0.119985 -0.212598 -1.222844
v -0.063066 -0.241663 -1.222844
vn -0.1555 -0.9768 0.1473
vn -0.2193 -0.9643 0.1485
vn -0.3498 -0.9270 0.1355
vn -0.3079 -0.9396 0.1491
vn -0.1529 -0.9772 0.1474
vn -0.7058 0.7056 -0.0634
vn -0.7057 0.7057 -0.0634
vn -0.7056 0.7057 -0.0634
vn -0.0031 0.0034 1.0000
vn -0.0032 0.0032 1.0000
vn -0.4916 0.4917 -0.7187
vn -0.4917 0.4917 -0.7186
vn -0.7069 0.7073 -0.0030
vn -0.3450 0.3452 0.8728
vn -0.3452 0.3451 0.8728
vn -0.3451 0.3451 0.8728
vn -0.4140 0.4140 -0.8107
vn -0.4139 0.4141 -0.8107
vn -0.7067 0.7068 -0.0327
vn -0.7368 0.6753 -0.0330
vn -0.3623 0.3340 0.8702
vn -0.3510 0.3485 0.8691
vn -0.3633 0.3330 0.8701
vn -0.3499 0.3498 0.8690
vn -0.3523 0.3524 -0.8670
vn -0.3524 0.3523 -0.8670
vn -0.3524 0.3524 -0.8670
vn 0.7071 0.7071 -0.0000
vn 0.7082 0.7060 -0.0000
vn 0.7072 0.7070 -0.0000
vn 0.7118 0.7024 -0.0001
vn 0.7077 0.7065 -0.0000
vn 0.7088 0.7054 -0.0001
vn -0.7069 0.7073 -0.0000
vn -0.7073 0.7069 -0.0000
vn -0.7088 -0.7054 0.0001
vn -0.7072 -0.7070 -0.0002
vn -0.7071 -0.7071 -0.0002
vn -0.7077 -0.7066 -0.0000
vn -0.7071 -0.7071 -0.0000
vn -0.7072 -0.7070 -0.0000
vn -0.7070 0.7072 -0.0002
vn -0.6757 0.7371 -0.0000
vn -0.6756 0.7373 -0.0000
vn -1.0000 -0.0000 -0.0000
vn -0.0000 -1.0000 -0.0000
vn 1.0000 -0.0000 -0.0000
vn -0.0000 0.6233 -0.7820
vn -0.0000 0.3301 -0.9439
vn -0.0000 -0.0000 -1.0000
vn -0.0000 0.2963 -0.9551
vn -0.0000 1.0000 -0.0000
vn -0.0000 -0.0000 1.0000
vn 0.8451 0.5346 -0.0000
vn 0.8450 0.5347 -0.0000
vn 0.8451 0.5347 -0.0000
vn -0.8448 0.5350 -0.0000
vn -0.8450 0.5347 -0.0000
vn 0.7059 0.7083 -0.0002
vn 0.7069 0.7073 0.0003
vn 0.7071 0.7071 0.0004
vn 0.7073 0.7069 0.0001
vn 0.7081 0.7061 -0.0003
vn 0.7058 0.7084 0.0004
vn 0.7085 0.7058 -0.0004
vn 0.7049 -0.7044 -0.0835
vn 0.7044 -0.7049 -0.0835
vn 0.7046 -0.7047 -0.0835
vn -0.7058 -0.7084 -0.0004
vn -0.7081 -0.7061 0.0003
vn -0.7084 -0.7058 0.0004
vn -0.7073 -0.7069 -0.0001
vn -0.7070 -0.7073 -0.0003
vn -0.7059 -0.7083 0.0002
vn -0.7071 -0.7071 -0.0004
vn 0.3806 -0.3803 -0.8429
vn 0.3805 -0.3806 -0.8428
vn 0.3807 -0.3803 -0.8429
vn 0.7037 -0.7034 0.1008
vn 0.7035 -0.7035 0.1008
vn 0.7068 -0.7072 0.0178
vn 0.7071 -0.7069 0.0178
vn 0.7057 -0.7058 -0.0617
vn -0.0000 0.6268 -0.7792
vn -0.0000 0.3323 -0.9432
vn 0.8386 0.5447 -0.0000
vn 0.8386 0.5448 -0.0000
vn -0.8384 0.5450 -0.0000
vn -0.8387 0.5447 -0.0000
vn -0.8386 0.5447 -0.0000
vn -0.8387 0.5446 -0.0000
vn 0.7056 0.7058 -0.0634
vn 0.7057 0.7057 -0.0634
vn 0.7057 0.7056 -0.0634
vn 0.0032 0.0032 1.0000
vn 0.0031 0.0034 1.0000
vn 0.4917 0.4918 -0.7186
vn 0.4918 0.4917 -0.7186
vn 0.7073 0.7069 -0.0030
vn 0.7072 0.7070 -0.0030
vn 0.7070 0.7072 -0.0030
vn 0.3451 0.3451 0.8728
vn 0.3450 0.3452 0.8728
vn 0.3451 0.3452 0.8728
vn 0.4140 0.4140 -0.8107
vn 0.4139 0.4141 -0.8107
vn 0.7367 0.6754 -0.0330
vn 0.7067 0.7067 -0.0327
vn 0.7068 0.7067 -0.0327
vn 0.7368 0.6753 -0.0330
vn 0.3509 0.3486 0.8691
vn 0.3623 0.3340 0.8701
vn 0.3633 0.3331 0.8701
vn 0.3498 0.3500 0.8690
vn 0.3521 0.3524 -0.8671
vn 0.3526 0.3523 -0.8669
vn -0.7071 0.7071 -0.0000
vn -0.7082 0.7060 -0.0000
vn -0.7118 0.7024 -0.0001
vn -0.7074 0.7068 -0.0000
vn -0.7089 0.7054 -0.0001
vn 0.7072 -0.7070 -0.0002
vn 0.7088 -0.7054 0.0001
vn 0.7071 -0.7071 -0.0003
vn 0.7075 -0.7067 -0.0000
vn 0.7071 -0.7071 -0.0000
vn 0.6757 0.7372 -0.0000
vn 0.7070 0.7072 -0.0002
vn 0.7071 0.7071 -0.0002
vn -0.7059 0.7083 -0.0002
vn -0.7071 0.7071 0.0004
vn -0.7069 0.7073 0.0003
vn -0.7073 0.7069 0.0001
vn -0.7081 0.7061 -0.0003
vn -0.7058 0.7084 0.0004
vn -0.7084 0.7058 -0.0004
vn -0.7044 -0.7049 -0.0835
vn -0.7046 -0.7046 -0.0835
vn -0.7046 -0.7047 -0.0835
vn 0.7058 -0.7084 -0.0004
vn 0.7084 -0.7058 0.0004
vn 0.7081 -0.7061 0.0003
vn 0.7073 -0.7069 -0.0001
vn 0.7069 -0.7073 -0.0003
vn 0.7059 -0.7083 0.0002
vn 0.7071 -0.7071 -0.0004
vn -0.3804 -0.3805 -0.8429
vn -0.3806 -0.3804 -0.8429
vn -0.3807 -0.3804 -0.8429
vn -0.7033 -0.7038 0.1007
vn -0.7035 -0.7035 0.1008
vn -0.7068 -0.7072 0.0178
vn -0.7070 -0.7070 0.0178
vn -0.7057 -0.7058 -0.0618
vn -0.7057 -0.7058 -0.0617
vn -0.7071 -0.7071 -0.0001
vn -0.7072 -0.7071 -0.0000
vn -0.7070 0.7072 -0.0000
vn -0.5281 0.5329 -0.6612
vn -0.5305 0.5304 -0.6612
vn -0.5281 0.5329 -0.6611
vn -0.5305 0.5306 -0.6611
vn 0.7071 -0.7072 0.0001
vn 0.7070 -0.7072 0.0001
vn -0.6944 -0.7196 -0.0000
vn -0.6948 -0.7192 -0.0000
vn -0.6947 -0.7193 -0.0000
vn -0.5214 -0.5395 -0.6611
vn -0.5303 -0.5304 -0.6614
vn -0.5212 -0.5398 -0.6610
vn -0.5304 -0.5303 -0.6614
vn 0.7071 -0.7071 -0.0001
vn 0.7072 -0.7071 -0.0000
vn 0.7074 0.7068 -0.0000
vn 0.5307 0.5303 -0.6612
vn 0.5281 0.5329 -0.6612
vn 0.5304 0.5306 -0.6612
vn -0.7071 -0.7072 0.0001
vn -0.7070 -0.7072 0.0001
vn 0.6945 -0.7195 -0.0000
vn 0.6948 -0.7192 -0.0000
vn 0.7073 0.7069 -0.0000
vn 0.5304 -0.5304 -0.6613
vn 0.5210 -0.5399 -0.6611
vn 0.5211 -0.5400 -0.6609
vn 0.5305 -0.5303 -0.6613
vn 0.7328 -0.1161 -0.6705
vn 0.4022 0.7900 -0.4627
vn 0.6199 0.6199 -0.4811
vn 0.4258 0.8360 -0.3460
vn 0.5171 0.7927 -0.3228
vn 0.3016 0.9287 -0.2157
vn 0.8683 0.1376 -0.4765
vn 0.6495 0.6487 -0.3967
vn 0.1560 -0.9876 0.0173
vn 0.3076 -0.9503 0.0477
vn 0.1544 -0.9869 0.0472
vn 0.3091 -0.9509 0.0175
vn 0.5869 -0.8083 0.0475
vn 0.3080 -0.9508 -0.0335
vn 0.1552 -0.9873 -0.0332
vn 0.5880 -0.8087 0.0175
vn 0.5874 -0.8086 -0.0333
vn 0.8083 -0.5869 0.0474
vn 0.8091 -0.5874 0.0175
vn 0.3088 -0.9496 -0.0545
vn 0.5861 -0.8084 -0.0548
vn 0.8086 -0.5874 -0.0333
vn 0.9511 -0.3085 0.0175
vn 0.1588 -0.9859 -0.0534
vn 0.9501 -0.3083 0.0474
vn 0.3091 -0.9495 -0.0545
vn 0.5867 -0.8080 -0.0546
vn 0.8080 -0.5867 -0.0547
vn 0.9505 -0.3088 -0.0333
vn 0.9998 -0.0000 0.0175
vn 0.1572 -0.9861 -0.0541
vn 0.9989 -0.0000 0.0474
vn 0.8079 -0.5868 -0.0548
vn 0.9498 -0.3081 -0.0547
vn 0.9994 -0.0000 -0.0333
vn 0.9501 0.3085 0.0474
vn 0.9510 0.3086 0.0175
vn 0.9505 0.3088 -0.0333
vn 0.9495 -0.3089 -0.0545
vn 0.9985 -0.0000 -0.0547
vn 0.9497 0.3082 -0.0546
vn 0.8084 0.5868 0.0475
vn 0.8091 0.5875 0.0175
vn 0.8086 0.5874 -0.0333
vn 0.8080 0.5866 -0.0546
vn 0.9985 -0.0000 -0.0543
vn 0.9496 0.3087 -0.0545
vn 0.8078 0.5869 -0.0546
vn 0.5871 0.8081 0.0475
vn 0.5874 0.8091 0.0175
vn 0.5874 0.8086 -0.0333
vn 0.5869 0.8078 -0.0547
vn 0.5866 0.8080 -0.0547
vn 0.3085 0.9511 0.0175
vn 0.3088 0.9506 -0.0333
vn 0.3081 0.9498 -0.0547
vn 0.3082 0.9501 0.0474
vn -0.0001 0.9998 0.0175
vn -0.0001 0.9994 -0.0333
vn 0.3088 0.9496 -0.0545
vn -0.0001 0.9985 -0.0547
vn -0.0001 0.9989 0.0474
vn -0.3081 0.9498 -0.0547
vn -0.3088 0.9505 -0.0333
vn -0.3083 0.9501 0.0474
vn -0.3085 0.9510 0.0175
vn -0.0001 0.9985 -0.0543
vn -0.3089 0.9495 -0.0545
vn -0.5869 0.8079 -0.0546
vn -0.5865 0.8081 -0.0548
vn -0.5874 0.8086 -0.0333
vn -0.5871 0.8081 0.0475
vn -0.5874 0.8091 0.0175
vn -0.8090 0.5875 0.0175
vn -0.8081 0.5866 -0.0546
vn -0.8078 0.5868 -0.0548
vn -0.8086 0.5874 -0.0333
vn -0.8084 0.5868 0.0475
vn -0.9510 0.3086 0.0175
vn -0.9505 0.3088 -0.0333
vn -0.9497 0.3082 -0.0546
vn -0.9496 0.3087 -0.0545
vn -0.9501 0.3085 0.0474
vn -0.9998 -0.0000 0.0175
vn -0.9994 -0.0000 -0.0333
vn -0.9985 -0.0000 -0.0547
vn -0.9985 -0.0000 -0.0543
vn -0.9989 -0.0000 0.0474
vn -0.9498 -0.3081 -0.0547
vn -0.9505 -0.3088 -0.0333
vn -0.9495 -0.3088 -0.0545
vn -0.9501 -0.3083 0.0474
vn -0.9511 -0.3085 0.0175
vn -0.8080 -0.5866 -0.0547
vn -0.8079 -0.5868 -0.0548
vn -0.8086 -0.5874 -0.0333
vn -0.8083 -0.5869 0.0474
vn -0.8091 -0.5874 0.0175
vn -0.5861 -0.8084 -0.0548
vn -0.5867 -0.8080 -0.0546
vn -0.5874 -0.8086 -0.0333
vn -0.5869 -0.8083 0.0475
vn -0.5879 -0.8087 0.0175
vn -0.3091 -0.9509 0.0175
vn -0.3081 -0.9508 -0.0335
vn -0.3089 -0.9495 -0.0545
vn -0.3092 -0.9495 -0.0545
vn -0.3076 -0.9503 0.0477
vn -0.1561 -0.9876 0.0173
vn -0.1553 -0.9873 -0.0332
vn -0.1590 -0.9858 -0.0534
vn -0.1573 -0.9861 -0.0541
vn -0.1545 -0.9869 0.0472
vn 0.1557 -0.9794 0.1284
vn 0.3043 -0.9408 0.1491
vn 0.1525 -0.9773 0.1474
vn 0.3058 -0.9432 0.1301
vn 0.1538 -0.9819 0.1102
vn 0.5810 -0.8001 0.1491
vn 0.3059 -0.9455 0.1116
vn 0.5824 -0.8024 0.1302
vn 0.5839 -0.8041 0.1116
vn 0.8024 -0.5824 0.1301
vn 0.8002 -0.5810 0.1491
vn 0.8041 -0.5839 0.1117
vn 0.9452 -0.3067 0.1117
vn 0.9429 -0.3066 0.1301
vn 0.9406 -0.3049 0.1491
vn 0.9937 -0.0000 0.1116
vn 0.9915 -0.0000 0.1301
vn 0.9888 0.0001 0.1491
vn 0.9428 0.3068 0.1301
vn 0.9406 0.3050 0.1491
vn 0.9452 0.3069 0.1117
vn 0.8023 0.5825 0.1301
vn 0.8000 0.5812 0.1491
vn 0.8042 0.5838 0.1117
vn 0.5811 0.8001 0.1491
vn 0.5841 0.8040 0.1116
vn 0.5828 0.8021 0.1302
vn 0.3067 0.9452 0.1116
vn 0.3063 0.9430 0.1301
vn 0.3060 0.9403 0.1491
vn -0.0001 0.9937 0.1116
vn -0.0001 0.9915 0.1301
vn -0.0002 0.9888 0.1491
vn -0.3064 0.9430 0.1301
vn -0.3062 0.9402 0.1491
vn -0.3067 0.9452 0.1116
vn -0.5828 0.8021 0.1302
vn -0.5811 0.8001 0.1491
vn -0.5841 0.8040 0.1116
vn -0.8023 0.5825 0.1301
vn -0.8000 0.5812 0.1491
vn -0.8042 0.5838 0.1117
vn -0.9452 0.3069 0.1117
vn -0.9428 0.3068 0.1301
vn -0.9406 0.3050 0.1491
vn -0.9937 -0.0000 0.1116
vn -0.9915 -0.0000 0.1301
vn -0.9888 0.0001 0.1491
vn -0.9429 -0.3066 0.1301
vn -0.9406 -0.3049 0.1491
vn -0.9452 -0.3067 0.1117
vn -0.8024 -0.5824 0.1301
vn -0.8002 -0.5809 0.1491
vn -0.8042 -0.5838 0.1116
vn -0.5824 -0.8024 0.1302
vn -0.5810 -0.8001 0.1491
vn -0.5839 -0.8041 0.1115
vn -0.3059 -0.9455 0.1116
vn -0.1538 -0.9819 0.1103
vn -0.1563 -0.9816 0.1100
vn 0.8929 0.2942 -0.3409
vn 0.7929 0.5169 -0.3228
vn 0.5745 0.7896 -0.2155
vn 0.7897 0.5744 -0.2156
vn 0.9287 0.3016 -0.2158
vn 0.7835 -0.3988 -0.4766
vn 0.9401 -0.0041 -0.3408
vn 0.9764 -0.0000 -0.2158
vn 0.8955 -0.2862 -0.3409
vn 0.8013 0.5826 -0.1361
vn 0.9422 0.3063 -0.1361
vn 0.9907 -0.0000 -0.1362
vn 0.3062 0.9422 -0.1361
vn 0.5826 0.8013 -0.1361
vn 0.9287 -0.3015 -0.2158
vn 0.7584 -0.5555 -0.3408
vn 0.9452 0.3075 -0.1093
vn 0.8042 0.5842 -0.1095
vn 0.9940 -0.0000 -0.1093
vn 0.9421 -0.3064 -0.1361
vn 0.7897 -0.5744 -0.2155
vn 0.5839 0.8044 -0.1094
vn 0.3076 0.9452 -0.1093
vn 0.9452 -0.3077 -0.1093
vn 0.8012 -0.5827 -0.1360
vn 0.5745 -0.7897 -0.2154
vn 0.5563 -0.7579 -0.3409
vn 0.8043 -0.5841 -0.1094
vn 0.5826 -0.8013 -0.1360
vn 0.3062 -0.9422 -0.1361
vn 0.3016 -0.9288 -0.2156
vn 0.2855 -0.8957 -0.3410
vn 0.3988 -0.7834 -0.4767
vn 0.5841 -0.8042 -0.1094
vn 0.3076 -0.9452 -0.1093
vn 0.1562 -0.9818 -0.1080
vn 0.1541 -0.9788 -0.1346
vn 0.1512 -0.9652 -0.2132
vn 0.1449 -0.9270 -0.3460
vn 0.1381 -0.8758 -0.4626
vn -0.0001 0.9940 -0.1093
vn -0.0001 0.9907 -0.1362
vn -0.3063 0.9422 -0.1361
vn -0.3077 0.9452 -0.1093
vn -0.3016 0.9287 -0.2157
vn -0.0001 0.9764 -0.2158
vn 0.1482 0.9330 -0.3278
vn -0.5826 0.8013 -0.1361
vn -0.5745 0.7896 -0.2156
vn -0.5839 0.8044 -0.1094
vn -0.5562 0.7579 -0.3409
vn -0.2868 0.8953 -0.3409
vn -0.0043 0.9401 -0.3407
vn -0.3991 0.7834 -0.4765
vn -0.7582 0.5558 -0.3409
vn -0.7897 0.5744 -0.2156
vn -0.1105 0.8821 -0.4579
vn -0.8042 0.5842 -0.1095
vn -0.8013 0.5826 -0.1361
vn -0.7330 0.1161 -0.6702
vn -0.7835 0.3990 -0.4764
vn -0.9287 0.3016 -0.2158
vn -0.8955 0.2862 -0.3409
vn -0.9422 0.3063 -0.1361
vn -0.9452 0.3075 -0.1093
vn -0.8684 -0.1376 -0.4764
vn -0.9401 0.0042 -0.3408
vn -0.9764 -0.0000 -0.2158
vn -0.9907 -0.0000 -0.1362
vn -0.9940 -0.0000 -0.1093
vn -0.8929 -0.2941 -0.3409
vn -0.6217 -0.6216 -0.4766
vn -0.3774 -0.8049 -0.4580
vn -0.9287 -0.3015 -0.2158
vn -0.9421 -0.3063 -0.1361
vn -0.7633 -0.5488 -0.3409
vn -0.7897 -0.5744 -0.2155
vn -0.9452 -0.3077 -0.1093
vn -0.8012 -0.5827 -0.1360
vn -0.5495 -0.7628 -0.3410
vn -0.2935 -0.8930 -0.3410
vn -0.5745 -0.7897 -0.2154
vn -0.1459 -0.9333 -0.3280
vn -0.3017 -0.9287 -0.2156
vn -0.1513 -0.9652 -0.2132
vn -0.8043 -0.5841 -0.1094
vn -0.5826 -0.8013 -0.1360
vn -0.3063 -0.9422 -0.1361
vn -0.1542 -0.9788 -0.1346
vn -0.5841 -0.8042 -0.1094
vn -0.3077 -0.9452 -0.1093
vn -0.1563 -0.9818 -0.1080
vt 0.193500 0.165000
vt 0.356000 0.010700
vt 0.216600 0.169900
vt 0.347900 0.008800
vt 0.974600 0.664600
vt 0.967800 0.597200
vt 0.969200 0.597200
vt 0.976100 0.664600
vt 0.973100 0.989900
vt 0.936000 0.989100
vt 0.973100 0.989200
vt 0.936000 0.989700
vt 0.936000 0.581100
vt 0.936000 0.581500
vt 0.968800 0.596700
vt 0.975100 0.724400
vt 0.974100 0.724400
vt 0.974600 0.724900
vt 0.948700 0.731700
vt 0.947800 0.731400
vt 0.959000 0.735600
vt 0.959500 0.735100
vt 0.960400 0.735600
vt 0.964400 0.822300
vt 0.962900 0.822300
vt 0.963900 0.822800
vt 0.953600 0.824800
vt 0.954100 0.825400
vt 0.976600 0.867300
vt 0.952600 0.861100
vt 0.953600 0.860500
vt 0.976100 0.867900
vt 0.955100 0.824800
vt 0.954100 0.861100
vt 0.867200 0.867600
vt 0.907200 0.989700
vt 0.870100 0.989800
vt 0.890600 0.860700
vt 0.889600 0.824100
vt 0.895500 0.730000
vt 0.907200 0.578900
vt 0.884300 0.734100
vt 0.880400 0.821500
vt 0.869100 0.722700
vt 0.868200 0.662600
vt 0.875500 0.594500
vt 0.977100 0.867900
vt 0.974600 0.989200
vt 0.046200 0.284200
vt 0.020000 0.293500
vt 0.046200 0.293500
vt 0.020000 0.255900
vt 0.092100 0.255900
vt 0.185900 0.065400
vt 0.219000 0.100600
vt 0.185900 0.100600
vt 0.219000 0.065400
vt 0.092000 0.255900
vt 0.062300 0.012200
vt 0.034800 0.047900
vt 0.034800 0.012200
vt 0.062300 0.047900
vt 0.062300 0.059600
vt 0.034800 0.064500
vt 0.047900 0.074700
vt 0.147500 0.074700
vt 0.133100 0.059600
vt 0.160500 0.064500
vt 0.160500 0.047900
vt 0.133100 0.047900
vt 0.133100 0.012200
vt 0.160500 0.012200
vt 0.024100 0.189500
vt 0.076100 0.221700
vt 0.105700 0.189500
vt 0.105700 0.236300
vt 0.076100 0.236300
vt 0.147500 0.091300
vt 0.047900 0.091300
vt 0.105800 0.236300
vt 0.105800 0.189500
vt 0.149300 0.110800
vt 0.121900 0.158200
vt 0.121900 0.110800
vt 0.149300 0.163600
vt 0.136200 0.173800
vt 0.036700 0.173800
vt 0.051100 0.158200
vt 0.023600 0.163600
vt 0.023600 0.110800
vt 0.051100 0.110800
vt 0.027700 0.074700
vt 0.027700 0.091300
vt 0.160500 0.091300
vt 0.160500 0.074700
vt 0.863300 0.518100
vt 0.902800 0.567900
vt 0.874500 0.568100
vt 0.856900 0.424300
vt 0.902800 0.266100
vt 0.863300 0.357900
vt 0.875000 0.275400
vt 0.873500 0.275400
vt 0.862300 0.357900
vt 0.973600 0.357900
vt 0.934600 0.266100
vt 0.962400 0.275400
vt 0.980000 0.424300
vt 0.934600 0.567900
vt 0.974100 0.518100
vt 0.962400 0.568100
vt 0.902800 0.568400
vt 0.875000 0.568600
vt 0.874000 0.274900
vt 0.901900 0.265600
vt 0.861800 0.518100
vt 0.873500 0.568100
vt 0.856000 0.424300
vt 0.234100 0.044400
vt 0.260300 0.053200
vt 0.234100 0.053200
vt 0.260300 0.016100
vt 0.188100 0.016100
vt 0.804700 0.789900
vt 0.837900 0.825300
vt 0.804700 0.825300
vt 0.837900 0.789900
vt 0.188200 0.015600
vt 0.260300 0.015600
vt 0.052100 0.917700
vt 0.026800 0.950700
vt 0.026800 0.917700
vt 0.052100 0.950700
vt 0.052100 0.961200
vt 0.026800 0.966100
vt 0.038800 0.975300
vt 0.130500 0.975300
vt 0.117300 0.961200
vt 0.142600 0.966100
vt 0.142600 0.950700
vt 0.117300 0.950700
vt 0.117300 0.917700
vt 0.142600 0.917700
vt 0.018300 0.862200
vt 0.063000 0.889900
vt 0.088600 0.862200
vt 0.088600 0.902800
vt 0.063000 0.902800
vt 0.130500 0.990500
vt 0.038800 0.990500
vt 0.063100 0.890000
vt 0.063100 0.902800
vt 0.088600 0.862300
vt 0.018300 0.862300
vt 0.838900 0.860800
vt 0.822300 0.889500
vt 0.822300 0.860800
vt 0.838900 0.892700
vt 0.831100 0.898800
vt 0.770500 0.898800
vt 0.779300 0.889500
vt 0.762700 0.892700
vt 0.762700 0.860800
vt 0.779300 0.860800
vt 0.020200 0.975300
vt 0.020200 0.990500
vt 0.142600 0.990500
vt 0.142600 0.975300
vt 0.964400 0.011700
vt 0.778800 0.111300
vt 0.607400 0.035600
vt 0.964400 0.111300
vt 0.964400 0.112800
vt 0.778800 0.112800
vt 0.943400 0.214400
vt 0.943400 0.121600
vt 0.744600 0.121600
vt 0.792500 0.299800
vt 0.967800 0.111300
vt 0.967800 0.011700
vt 0.776400 0.112300
vt 0.605000 0.037100
vt 0.551800 0.996000
vt 0.495800 0.959600
vt 0.522500 0.953600
vt 0.472200 0.923500
vt 0.495400 0.920500
vt 0.451700 0.876600
vt 0.550300 0.951700
vt 0.518100 0.918800
vt 0.828600 0.464400
vt 0.768600 0.315400
vt 0.806600 0.315400
vt 0.786600 0.464400
vt 0.730500 0.315400
vt 0.773900 0.630900
vt 0.814000 0.632600
vt 0.745100 0.464400
vt 0.734400 0.629600
vt 0.692400 0.315400
vt 0.704100 0.464400
vt 0.755400 0.707000
vt 0.718300 0.705300
vt 0.694800 0.628400
vt 0.663600 0.464400
vt 0.793000 0.709000
vt 0.653800 0.315400
vt 0.739700 0.773200
vt 0.704600 0.771200
vt 0.681200 0.703900
vt 0.655800 0.627400
vt 0.623000 0.464400
vt 0.774900 0.775400
vt 0.615700 0.315400
vt 0.669400 0.769400
vt 0.644000 0.702600
vt 0.616700 0.626700
vt 0.577600 0.315400
vt 0.583000 0.464400
vt 0.577600 0.626200
vt 0.634300 0.767900
vt 0.606900 0.701700
vt 0.570300 0.700700
vt 0.539100 0.315400
vt 0.543000 0.464400
vt 0.539100 0.625700
vt 0.533700 0.700000
vt 0.599100 0.766600
vt 0.564000 0.765400
vt 0.528800 0.764500
vt 0.501000 0.315400
vt 0.503400 0.464400
vt 0.501000 0.625700
vt 0.497100 0.699500
vt 0.493700 0.763700
vt 0.463600 0.464400
vt 0.462400 0.625700
vt 0.460400 0.699200
vt 0.462400 0.315400
vt 0.424100 0.464400
vt 0.424100 0.626200
vt 0.458700 0.763100
vt 0.424100 0.699200
vt 0.424100 0.315400
vt 0.387700 0.699200
vt 0.385700 0.625700
vt 0.385700 0.315400
vt 0.384500 0.464400
vt 0.424100 0.762600
vt 0.389400 0.763100
vt 0.351300 0.699500
vt 0.354500 0.763700
vt 0.347400 0.625700
vt 0.347400 0.315400
vt 0.344700 0.464400
vt 0.305200 0.464400
vt 0.314700 0.700000
vt 0.319600 0.764500
vt 0.308800 0.625700
vt 0.309100 0.315400
vt 0.265100 0.464400
vt 0.270300 0.626200
vt 0.277800 0.700700
vt 0.284400 0.765400
vt 0.270800 0.315400
vt 0.225100 0.464400
vt 0.231700 0.626700
vt 0.241100 0.701700
vt 0.249400 0.766600
vt 0.232400 0.315400
vt 0.204200 0.702600
vt 0.192700 0.627400
vt 0.214100 0.767900
vt 0.194200 0.315400
vt 0.184800 0.464400
vt 0.167100 0.703900
vt 0.179000 0.769400
vt 0.153600 0.628400
vt 0.156100 0.315400
vt 0.144200 0.464400
vt 0.130000 0.705300
vt 0.143800 0.771200
vt 0.114100 0.629600
vt 0.117900 0.315400
vt 0.103200 0.464400
vt 0.061800 0.464400
vt 0.074300 0.630900
vt 0.092700 0.707000
vt 0.108600 0.773200
vt 0.079800 0.315400
vt 0.019800 0.464400
vt 0.034100 0.632600
vt 0.055200 0.709000
vt 0.073500 0.775400
vt 0.041800 0.315400
vt 0.845200 0.964000
vt 0.845200 0.939200
vt 0.849100 0.951600
vt 0.833500 0.975100
vt 0.833500 0.928000
vt 0.815900 0.919200
vt 0.815900 0.984000
vt 0.793500 0.913500
vt 0.793500 0.989700
vt 0.769000 0.991600
vt 0.769000 0.911600
vt 0.744100 0.989700
vt 0.744100 0.913500
vt 0.721700 0.919200
vt 0.721700 0.984000
vt 0.704100 0.975100
vt 0.704100 0.928000
vt 0.692900 0.964000
vt 0.692900 0.939200
vt 0.689000 0.951600
vt 0.674300 0.165000
vt 0.511700 0.010700
vt 0.519500 0.008800
vt 0.650900 0.169900
vt 0.764200 0.275900
vt 0.503400 0.012700
vt 0.732400 0.281700
vt 0.627400 0.174300
vt 0.700700 0.287600
vt 0.604000 0.178200
vt 0.495100 0.014200
vt 0.668000 0.292500
vt 0.635300 0.296900
vt 0.580100 0.181600
vt 0.486600 0.015600
vt 0.602500 0.300300
vt 0.556200 0.184600
vt 0.477800 0.016600
vt 0.531700 0.187000
vt 0.469200 0.017600
vt 0.568800 0.303200
vt 0.507300 0.189000
vt 0.460400 0.018100
vt 0.535600 0.305700
vt 0.451700 0.018600
vt 0.501500 0.307600
vt 0.482900 0.189900
vt 0.467800 0.308600
vt 0.458500 0.190900
vt 0.442600 0.019000
vt 0.433800 0.309100
vt 0.433800 0.191400
vt 0.433800 0.019000
vt 0.409200 0.190900
vt 0.424800 0.019000
vt 0.399900 0.308600
vt 0.384800 0.189900
vt 0.416000 0.018600
vt 0.366000 0.307600
vt 0.360100 0.189000
vt 0.407200 0.018100
vt 0.332300 0.305700
vt 0.298600 0.303200
vt 0.335900 0.187000
vt 0.398400 0.017600
vt 0.265400 0.300300
vt 0.311500 0.184600
vt 0.389600 0.016600
vt 0.287600 0.181600
vt 0.381100 0.015600
vt 0.232200 0.296900
vt 0.263700 0.178200
vt 0.372600 0.014200
vt 0.199500 0.292500
vt 0.240000 0.174300
vt 0.364300 0.012700
vt 0.167000 0.287600
vt 0.135000 0.281700
vt 0.103500 0.275900
vt 0.540500 0.918200
vt 0.483400 0.875600
vt 0.513700 0.875300
vt 0.543000 0.875700
vt 0.577600 0.953600
vt 0.562500 0.918600
vt 0.571300 0.876900
vt 0.584000 0.920200
vt 0.519000 0.828100
vt 0.551300 0.829200
vt 0.583000 0.830700
vt 0.455100 0.826900
vt 0.487100 0.827400
vt 0.599100 0.878800
vt 0.605000 0.922700
vt 0.560500 0.772000
vt 0.525900 0.771100
vt 0.595200 0.773100
vt 0.615200 0.832600
vt 0.627400 0.881700
vt 0.491700 0.770500
vt 0.457800 0.770100
vt 0.630900 0.774800
vt 0.647500 0.835100
vt 0.655300 0.885400
vt 0.626000 0.926400
vt 0.666500 0.777000
vt 0.679700 0.838300
vt 0.713400 0.841900
vt 0.683600 0.890100
vt 0.647000 0.931200
vt 0.603000 0.959200
vt 0.703100 0.779800
vt 0.739700 0.783300
vt 0.776400 0.787500
vt 0.747100 0.846300
vt 0.712400 0.895900
vt 0.667500 0.937300
vt 0.625000 0.968600
vt 0.423800 0.769900
vt 0.423100 0.826500
vt 0.391400 0.826400
vt 0.390100 0.769900
vt 0.390400 0.873000
vt 0.420200 0.874500
vt 0.423300 0.923100
vt 0.359600 0.826500
vt 0.361600 0.872400
vt 0.356200 0.770100
vt 0.356000 0.914400
vt 0.377900 0.916100
vt 0.400400 0.919000
vt 0.351800 0.948800
vt 0.334200 0.913600
vt 0.333500 0.872400
vt 0.378400 0.954900
vt 0.322000 0.770600
vt 0.328400 0.827100
vt 0.320300 0.991300
vt 0.323700 0.946700
vt 0.305900 0.873300
vt 0.312700 0.913900
vt 0.296900 0.828200
vt 0.287600 0.771500
vt 0.296100 0.948300
vt 0.291500 0.915200
vt 0.278600 0.874900
vt 0.265600 0.829800
vt 0.252700 0.772700
vt 0.270800 0.917400
vt 0.270300 0.953500
vt 0.246900 0.962500
vt 0.251500 0.877300
vt 0.234100 0.831900
vt 0.250000 0.920600
vt 0.224100 0.880600
vt 0.217400 0.774500
vt 0.202100 0.834700
vt 0.229600 0.924900
vt 0.209500 0.930400
vt 0.196700 0.884700
vt 0.189300 0.937000
vt 0.168800 0.889900
vt 0.140400 0.896200
vt 0.181500 0.776900
vt 0.169800 0.838000
vt 0.136700 0.842000
vt 0.102700 0.846700
vt 0.145300 0.779900
vt 0.108700 0.783600
vt 0.072100 0.788100
s 1
usemtl JDAM
f 1/1/1 2/2/2 3/3/3
f 2/2/4 1/1/5 4/4/5
f 5/5/6 6/6/7 7/7/6
f 7/7/6 8/8/8 5/5/6
f 9/9/9 10/10/10 11/11/9
f 10/10/10 9/9/9 12/12/10
f 13/13/11 6/6/12 14/14/11
f 6/6/12 13/13/11 7/15/12
f 5/5/13 15/16/13 16/17/13
f 15/16/13 5/5/13 8/8/13
f 15/18/14 17/19/15 16/17/14
f 16/17/14 17/19/15 18/20/16
f 17/19/17 19/21/18 18/20/17
f 19/21/18 17/19/17 20/22/17
f 20/23/19 21/24/19 19/21/19
f 19/21/20 21/24/20 22/25/20
f 21/26/21 23/27/22 22/25/23
f 23/27/22 21/26/21 24/28/24
f 25/29/25 26/30/26 27/31/26
f 26/30/26 25/29/25 28/32/27
f 5/5/28 14/14/28 6/6/28
f 16/17/28 14/14/28 5/5/28
f 18/20/28 14/14/28 16/17/28
f 18/20/28 10/10/29 14/14/28
f 10/10/29 18/20/28 23/27/29
f 23/27/29 18/20/28 19/21/30
f 23/27/29 19/21/30 22/25/31
f 10/10/29 23/27/29 26/30/32
f 10/10/29 26/30/32 28/32/33
f 10/10/29 28/32/33 11/11/29
f 24/33/34 26/30/35 23/27/34
f 26/30/35 24/33/34 27/34/35
f 25/35/36 12/36/37 9/37/38
f 27/38/39 12/36/37 25/35/36
f 12/36/37 27/38/39 24/39/40
f 17/40/40 12/36/37 24/39/40
f 12/36/37 17/40/40 13/41/40
f 24/39/40 20/42/40 17/40/40
f 20/42/40 24/39/40 21/43/41
f 13/41/40 17/40/40 15/44/40
f 13/41/40 15/44/40 8/45/40
f 13/41/40 8/45/40 7/46/40
f 25/47/42 9/48/43 28/32/42
f 28/32/42 9/48/43 11/11/44
f 29/49/45 30/50/45 31/51/45
f 32/52/45 30/50/45 29/49/45
f 29/49/45 33/53/45 32/52/45
f 31/54/46 34/55/46 35/56/46
f 34/55/46 31/54/46 30/57/46
f 36/58/47 37/49/47 38/52/47
f 34/50/47 38/52/47 37/49/47
f 34/50/47 37/49/47 35/51/47
f 33/59/48 39/60/49 40/61/48
f 39/60/49 33/59/48 29/62/49
f 31/63/50 39/60/49 29/62/49
f 41/64/50 39/60/49 31/63/50
f 31/63/50 42/65/50 41/64/50
f 31/63/50 43/66/50 42/65/50
f 43/66/50 31/63/50 35/67/50
f 43/66/50 35/67/50 44/68/50
f 35/67/50 45/69/51 44/68/50
f 45/69/51 35/67/50 37/70/49
f 37/70/49 36/71/48 45/69/51
f 45/69/48 36/71/48 46/72/48
f 40/73/47 39/74/47 47/75/47
f 48/76/47 47/75/47 39/74/47
f 41/77/47 48/76/47 39/74/47
f 49/78/52 50/79/52 43/66/52
f 42/65/52 43/66/52 50/79/52
f 45/74/45 51/80/45 44/77/45
f 45/74/45 52/81/45 51/80/45
f 52/81/45 45/74/45 46/73/45
f 47/82/53 30/83/53 32/84/53
f 47/82/53 48/85/53 30/83/53
f 50/86/53 30/83/53 48/85/53
f 50/86/53 49/87/53 30/83/53
f 30/83/53 49/87/53 34/88/53
f 51/89/53 34/88/53 49/87/53
f 52/90/53 34/88/53 51/89/53
f 38/91/53 34/88/53 52/90/53
f 42/65/54 50/79/55 41/92/56
f 41/92/56 50/79/55 48/93/55
f 51/94/57 43/66/58 44/95/58
f 43/66/58 51/94/57 49/78/58
f 53/96/59 54/97/60 55/98/61
f 56/99/62 54/97/60 53/96/59
f 57/100/63 54/97/60 56/99/62
f 58/101/64 57/100/63 56/99/62
f 58/101/64 59/102/65 57/100/63
f 60/103/66 58/101/67 61/104/67
f 58/101/67 60/103/66 59/102/68
f 61/105/69 62/106/70 60/107/71
f 63/108/72 62/106/70 61/105/69
f 64/109/73 62/106/70 63/108/72
f 64/109/73 63/108/72 65/110/74
f 64/109/73 65/110/74 66/111/75
f 55/98/53 54/97/53 64/112/53
f 64/112/53 66/113/53 55/98/53
f 57/100/76 59/102/77 60/114/77
f 60/114/77 62/115/78 57/100/76
f 65/116/79 55/98/80 66/117/80
f 55/98/80 65/116/79 53/96/79
f 63/118/81 53/96/82 65/116/81
f 53/96/82 63/118/81 56/99/81
f 61/104/83 56/99/83 63/118/83
f 56/99/83 61/104/83 58/101/83
f 67/119/45 68/120/45 69/121/45
f 70/122/45 68/120/45 67/119/45
f 67/119/45 71/123/45 70/122/45
f 69/124/46 72/125/46 73/126/46
f 72/125/46 69/124/46 68/127/46
f 74/128/47 75/119/47 76/129/47
f 72/120/47 76/129/47 75/119/47
f 72/120/47 75/119/47 73/121/47
f 71/130/84 77/131/85 78/132/84
f 77/131/85 71/130/84 67/133/85
f 69/134/50 77/131/85 67/133/85
f 79/135/50 77/131/85 69/134/50
f 69/134/50 80/136/50 79/135/50
f 69/134/50 81/137/50 80/136/50
f 81/137/50 69/134/50 73/138/50
f 81/137/50 73/138/50 82/139/50
f 73/138/50 83/140/85 82/139/50
f 83/140/85 73/138/50 75/141/85
f 75/141/85 74/142/84 83/140/85
f 83/140/85 74/142/84 84/143/84
f 78/144/47 77/145/47 85/146/47
f 86/147/47 85/146/47 77/145/47
f 79/148/47 86/147/47 77/145/47
f 87/149/52 88/150/52 81/137/52
f 80/136/52 81/137/52 88/150/52
f 83/151/45 89/147/45 82/152/45
f 83/151/45 90/153/45 89/147/45
f 90/153/45 83/151/45 84/154/45
f 85/155/53 68/156/53 70/157/53
f 85/155/53 86/158/53 68/156/53
f 88/159/53 68/156/53 86/158/53
f 88/159/53 87/160/53 68/156/53
f 68/156/53 87/160/53 72/161/53
f 89/162/53 72/161/53 87/160/53
f 90/163/53 72/161/53 89/162/53
f 76/164/53 72/161/53 90/163/53
f 80/136/86 88/150/87 79/165/87
f 79/165/87 88/150/87 86/166/87
f 89/167/88 81/137/89 82/168/90
f 81/137/89 89/167/88 87/149/91
f 91/6/92 92/8/93 93/7/94
f 92/8/93 91/6/92 94/5/94
f 95/10/95 96/9/96 97/11/96
f 96/9/96 95/10/95 98/12/95
f 93/15/97 99/13/98 100/14/98
f 100/14/98 91/6/97 93/15/97
f 94/5/99 101/16/100 92/8/99
f 101/16/100 94/5/99 102/17/101
f 103/19/102 102/17/103 104/20/104
f 102/17/103 103/19/102 101/18/103
f 105/22/105 103/19/106 104/20/105
f 104/20/105 106/21/105 105/22/105
f 107/24/107 105/23/108 106/21/109
f 106/21/109 108/25/110 107/24/107
f 109/27/111 107/26/112 108/25/113
f 107/26/112 109/27/111 110/28/114
f 111/29/115 112/31/116 113/30/116
f 113/30/116 114/32/115 111/29/115
f 94/5/117 91/6/117 100/14/117
f 102/17/117 94/5/117 100/14/117
f 104/20/117 102/17/117 100/14/117
f 95/10/118 104/20/117 100/14/117
f 104/20/117 95/10/118 109/27/118
f 104/20/117 109/27/118 106/21/35
f 109/27/118 108/25/119 106/21/35
f 95/10/118 113/30/120 109/27/118
f 95/10/118 114/32/121 113/30/120
f 95/10/118 97/11/118 114/32/121
f 110/33/30 113/30/28 112/34/28
f 113/30/28 110/33/30 109/27/28
f 98/36/122 111/35/123 96/37/124
f 111/35/123 98/36/122 112/38/125
f 98/36/122 110/39/126 112/38/125
f 98/36/122 103/40/126 110/39/126
f 103/40/126 98/36/122 99/41/126
f 105/42/126 110/39/126 103/40/126
f 110/39/126 105/42/126 107/43/126
f 99/41/126 101/44/126 103/40/126
f 99/41/126 92/45/126 101/44/126
f 99/41/126 93/46/126 92/45/126
f 96/48/127 111/47/128 114/32/129
f 114/32/129 97/11/127 96/48/127
f 115/96/130 116/98/131 117/97/132
f 117/97/132 118/99/133 115/96/130
f 117/97/132 119/100/134 118/99/133
f 120/101/135 118/99/133 119/100/134
f 120/101/135 119/100/134 121/102/136
f 122/103/137 120/101/138 121/102/137
f 120/101/138 122/103/137 123/104/139
f 123/105/140 122/107/141 124/106/142
f 125/108/143 123/105/140 124/106/142
f 124/106/142 126/109/144 125/108/143
f 125/108/143 126/109/144 127/110/145
f 126/109/144 128/111/146 127/110/145
f 116/98/53 126/112/53 117/97/53
f 126/112/53 116/98/53 128/113/53
f 121/102/147 119/100/148 122/114/147
f 122/114/147 119/100/148 124/115/149
f 127/116/150 128/117/151 115/96/150
f 115/96/150 128/117/151 116/98/150
f 125/118/152 127/116/152 118/99/152
f 118/99/152 127/116/152 115/96/153
f 123/104/154 118/99/155 120/101/154
f 118/99/155 123/104/154 125/118/155
f 129/169/40 130/170/156 131/171/156
f 130/170/156 129/169/40 132/172/157
f 133/173/158 134/174/158 130/170/158
f 130/170/158 132/172/158 133/173/158
f 134/175/28 133/176/28 135/177/28
f 134/175/28 135/177/28 136/178/28
f 132/172/53 129/169/53 133/179/53
f 133/179/53 129/169/53 135/180/53
f 131/171/159 134/181/160 136/182/161
f 134/181/160 131/171/159 130/170/162
f 137/169/126 138/170/163 139/171/164
f 138/170/163 137/169/126 140/172/126
f 141/173/165 142/174/166 138/170/166
f 138/170/166 140/172/167 141/173/165
f 142/175/35 141/176/35 143/177/35
f 142/175/35 143/177/35 144/178/35
f 141/179/53 137/169/53 143/180/53
f 137/169/53 141/179/53 140/172/53
f 142/181/168 139/171/169 138/170/170
f 139/171/169 142/181/168 144/182/171
f 145/169/126 146/170/172 147/172/173
f 146/170/172 145/169/126 148/171/172
f 149/174/30 150/173/174 146/170/30
f 146/170/30 150/173/174 147/172/174
f 151/178/117 152/177/117 149/175/117
f 149/175/117 152/177/117 150/176/117
f 145/169/53 150/179/53 152/180/53
f 150/179/53 145/169/53 147/172/53
f 146/170/175 148/171/176 151/182/176
f 151/182/176 149/181/177 146/170/175
f 153/169/40 154/170/178 155/172/40
f 154/170/178 153/169/40 156/171/179
f 157/174/180 158/173/181 154/170/181
f 154/170/181 158/173/181 155/172/181
f 159/178/182 160/177/182 157/175/182
f 157/175/182 160/177/182 158/176/182
f 158/179/53 160/180/53 153/169/53
f 153/169/53 155/172/53 158/179/53
f 156/171/183 157/181/184 154/170/185
f 157/181/184 156/171/183 159/182/186
f 161/183/187 162/184/188 163/185/189
f 162/184/188 164/186/190 163/185/189
f 163/185/189 164/186/190 165/187/191
f 164/186/190 166/188/192 165/187/191
f 161/183/187 163/185/189 167/189/193
f 163/185/194 165/187/194 168/190/194
f 169/191/195 170/192/196 171/193/197
f 172/194/198 170/192/196 169/191/195
f 172/194/198 173/195/199 170/192/196
f 169/191/195 174/196/200 172/194/198
f 174/196/200 169/191/195 175/197/201
f 176/198/202 173/195/199 172/194/198
f 172/194/198 177/199/203 176/198/202
f 177/199/203 172/194/198 174/196/200
f 178/200/204 173/195/199 176/198/202
f 179/201/205 178/200/204 176/198/202
f 177/199/203 179/201/205 176/198/202
f 175/197/201 180/202/206 174/196/200
f 174/196/200 181/203/207 177/199/203
f 181/203/207 174/196/200 180/202/206
f 182/204/208 177/199/203 181/203/207
f 182/204/208 179/201/205 177/199/203
f 183/205/209 178/200/204 179/201/205
f 182/204/208 183/205/209 179/201/205
f 180/202/206 175/197/201 184/206/210
f 178/200/204 183/205/209 185/207/211
f 184/206/210 186/208/212 180/202/206
f 180/202/206 187/209/213 181/203/207
f 187/209/213 180/202/206 186/208/212
f 188/210/214 182/204/208 181/203/207
f 187/209/213 188/210/214 181/203/207
f 188/210/214 189/211/215 182/204/208
f 189/211/215 183/205/209 182/204/208
f 190/212/216 185/207/211 183/205/209
f 189/211/215 190/212/216 183/205/209
f 186/208/212 184/206/210 191/213/217
f 185/207/211 190/212/216 192/214/218
f 193/215/219 188/210/214 187/209/213
f 194/216/220 189/211/215 188/210/214
f 193/215/219 194/216/220 188/210/214
f 194/216/220 195/217/221 189/211/215
f 195/217/221 190/212/216 189/211/215
f 190/212/216 196/218/222 192/214/218
f 197/219/223 196/218/222 190/212/216
f 190/212/216 198/220/224 197/219/223
f 198/220/224 190/212/216 195/217/221
f 199/221/225 194/216/220 193/215/219
f 200/222/226 195/217/221 194/216/220
f 199/221/225 200/222/226 194/216/220
f 201/223/227 195/217/221 200/222/226
f 195/217/221 201/223/227 198/220/224
f 197/219/223 202/224/228 196/218/222
f 203/225/229 202/224/228 197/219/223
f 197/219/223 204/226/230 203/225/229
f 204/226/230 197/219/223 198/220/224
f 205/227/231 198/220/224 201/223/227
f 198/220/224 205/227/231 204/226/230
f 206/228/232 200/222/226 199/221/225
f 207/229/233 200/222/226 206/228/232
f 200/222/226 207/229/233 201/223/227
f 208/230/234 201/223/227 207/229/233
f 201/223/227 208/230/234 205/227/231
f 209/231/235 202/224/228 203/225/229
f 210/232/236 209/231/235 203/225/229
f 203/225/229 211/233/237 210/232/236
f 211/233/237 203/225/229 204/226/230
f 212/234/238 204/226/230 205/227/231
f 204/226/230 212/234/238 211/233/237
f 213/235/239 205/227/231 208/230/234
f 205/227/231 213/235/239 212/234/238
f 214/236/240 209/231/235 210/232/236
f 211/233/237 214/236/240 210/232/236
f 212/234/238 215/237/241 211/233/237
f 215/237/241 214/236/240 211/233/237
f 216/238/242 215/237/241 212/234/238
f 213/235/239 216/238/242 212/234/238
f 209/231/235 214/236/240 217/239/243
f 218/240/244 217/239/243 214/236/240
f 215/237/241 218/240/244 214/236/240
f 216/238/242 219/241/245 215/237/241
f 219/241/245 218/240/244 215/237/241
f 220/242/246 216/238/242 213/235/239
f 221/243/247 219/241/245 216/238/242
f 220/242/246 221/243/247 216/238/242
f 217/239/243 218/240/244 222/244/248
f 223/245/249 219/241/245 221/243/247
f 224/246/250 218/240/244 219/241/245
f 219/241/245 223/245/249 224/246/250
f 218/240/244 225/247/251 222/244/248
f 226/248/252 225/247/251 218/240/244
f 218/240/244 224/246/250 226/248/252
f 227/249/253 221/243/247 220/242/246
f 228/250/254 221/243/247 227/249/253
f 221/243/247 228/250/254 223/245/249
f 229/251/255 224/246/250 223/245/249
f 223/245/249 230/252/256 229/251/255
f 230/252/256 223/245/249 228/250/254
f 224/246/250 229/251/255 231/253/257
f 231/253/257 226/248/252 224/246/250
f 226/248/252 232/254/258 225/247/251
f 233/255/259 232/254/258 226/248/252
f 226/248/252 231/253/257 233/255/259
f 234/256/260 232/254/258 233/255/259
f 231/253/257 234/256/260 233/255/259
f 235/257/261 231/253/257 229/251/255
f 229/251/255 236/258/262 235/257/261
f 236/258/262 229/251/255 230/252/256
f 231/253/257 235/257/261 237/259/263
f 237/259/263 234/256/260 231/253/257
f 232/254/258 234/256/260 238/260/264
f 239/261/265 238/260/264 234/256/260
f 237/259/263 239/261/265 234/256/260
f 235/257/261 240/262/266 237/259/263
f 240/262/266 239/261/265 237/259/263
f 241/263/267 240/262/266 235/257/261
f 236/258/262 241/263/267 235/257/261
f 242/264/268 241/263/267 236/258/262
f 238/260/264 239/261/265 243/265/269
f 244/266/270 243/265/269 239/261/265
f 240/262/266 244/266/270 239/261/265
f 241/263/267 245/267/271 240/262/266
f 245/267/271 244/266/270 240/262/266
f 246/268/272 245/267/271 241/263/267
f 242/264/268 246/268/272 241/263/267
f 247/269/273 246/268/272 242/264/268
f 243/265/269 244/266/270 248/270/274
f 249/271/275 245/267/271 246/268/272
f 250/272/276 244/266/270 245/267/271
f 245/267/271 249/271/275 250/272/276
f 251/273/277 246/268/272 247/269/273
f 246/268/272 251/273/277 249/271/275
f 244/266/270 252/274/278 248/270/274
f 253/275/279 252/274/278 244/266/270
f 244/266/270 250/272/276 253/275/279
f 254/276/280 250/272/276 249/271/275
f 249/271/275 255/277/281 254/276/280
f 255/277/281 249/271/275 251/273/277
f 250/272/276 254/276/280 256/278/282
f 256/278/282 253/275/279 250/272/276
f 253/275/279 257/279/283 252/274/278
f 258/280/284 257/279/283 253/275/279
f 253/275/279 256/278/282 258/280/284
f 259/281/285 256/278/282 254/276/280
f 254/276/280 260/282/286 259/281/285
f 260/282/286 254/276/280 255/277/281
f 256/278/282 259/281/285 261/283/287
f 261/283/287 258/280/284 256/278/282
f 262/284/288 257/279/283 258/280/284
f 263/285/289 262/284/288 258/280/284
f 258/280/284 261/283/287 263/285/289
f 264/286/290 262/284/288 263/285/289
f 261/283/287 264/286/290 263/285/289
f 259/281/285 265/287/291 261/283/287
f 265/287/291 264/286/290 261/283/287
f 266/288/292 265/287/291 259/281/285
f 260/282/286 266/288/292 259/281/285
f 267/289/293 266/288/292 260/282/286
f 262/284/288 264/286/290 268/290/294
f 169/291/295 268/290/294 264/286/290
f 265/287/291 169/291/295 264/286/290
f 266/288/292 175/292/296 265/287/291
f 175/292/296 169/291/295 265/287/291
f 184/293/297 175/292/296 266/288/292
f 267/289/293 184/293/297 266/288/292
f 191/294/298 184/293/297 267/289/293
f 268/290/294 169/291/295 171/295/299
f 269/296/53 270/297/53 271/298/53
f 272/299/53 270/297/53 269/296/53
f 272/299/53 273/300/53 270/297/53
f 272/299/53 274/301/53 273/300/53
f 274/301/53 272/299/53 275/302/53
f 275/302/53 276/303/53 274/301/53
f 277/304/53 276/303/53 275/302/53
f 276/303/53 277/304/53 278/305/53
f 278/305/53 4/306/53 276/303/53
f 279/307/53 4/306/53 278/305/53
f 4/306/53 279/307/53 2/308/53
f 2/308/53 279/307/53 280/309/53
f 280/309/53 279/307/53 281/310/53
f 280/309/53 281/310/53 282/311/53
f 280/309/53 282/311/53 283/312/53
f 283/312/53 282/311/53 284/313/53
f 283/312/53 284/313/53 285/314/53
f 285/314/53 284/313/53 286/315/53
f 1/316/300 276/317/301 4/318/302
f 287/319/303 276/317/301 1/316/300
f 171/320/304 287/319/303 1/316/300
f 287/319/303 274/321/305 276/317/301
f 170/322/306 287/319/303 171/320/304
f 170/322/306 288/323/307 287/319/303
f 288/323/307 274/321/305 287/319/303
f 173/324/308 288/323/307 170/322/306
f 173/324/308 289/325/309 288/323/307
f 289/325/309 274/321/305 288/323/307
f 274/321/305 289/325/309 273/326/310
f 178/327/311 289/325/309 173/324/308
f 185/328/312 289/325/309 178/327/311
f 290/329/313 273/326/310 289/325/309
f 289/325/309 185/328/312 290/329/313
f 273/326/310 290/329/313 270/330/314
f 192/331/315 290/329/313 185/328/312
f 290/329/313 192/331/315 291/332/316
f 291/332/316 270/330/314 290/329/313
f 270/330/314 291/332/316 271/333/317
f 192/331/315 292/334/318 291/332/316
f 291/332/316 269/335/319 271/333/317
f 292/334/318 269/335/319 291/332/316
f 196/336/320 292/334/318 192/331/315
f 196/336/320 293/337/321 292/334/318
f 292/334/318 272/338/322 269/335/319
f 293/337/321 272/338/322 292/334/318
f 202/339/323 293/337/321 196/336/320
f 293/337/321 275/340/324 272/338/322
f 209/341/325 293/337/321 202/339/323
f 294/342/326 275/340/324 293/337/321
f 293/337/321 209/341/325 294/342/326
f 217/343/327 294/342/326 209/341/325
f 294/342/326 217/343/327 295/344/328
f 295/344/328 275/340/324 294/342/326
f 275/340/324 295/344/328 277/345/329
f 222/346/330 295/344/328 217/343/327
f 295/344/328 222/346/330 296/347/331
f 296/347/331 277/345/329 295/344/328
f 277/345/329 296/347/331 278/348/332
f 222/346/330 297/349/333 296/347/331
f 296/347/331 279/350/334 278/348/332
f 297/349/333 279/350/334 296/347/331
f 225/351/335 297/349/333 222/346/330
f 225/351/335 298/352/336 297/349/333
f 297/349/333 281/353/337 279/350/334
f 298/352/336 281/353/337 297/349/333
f 232/354/338 298/352/336 225/351/335
f 232/354/338 299/355/339 298/352/336
f 298/352/336 282/356/340 281/353/337
f 299/355/339 282/356/340 298/352/336
f 238/357/341 299/355/339 232/354/338
f 243/358/342 299/355/339 238/357/341
f 300/359/343 282/356/340 299/355/339
f 299/355/339 243/358/342 300/359/343
f 282/356/340 300/359/343 284/360/344
f 248/361/345 300/359/343 243/358/342
f 300/359/343 248/361/345 301/362/346
f 301/362/346 284/360/344 300/359/343
f 284/360/344 301/362/346 286/363/347
f 248/361/345 302/364/348 301/362/346
f 301/362/346 285/365/349 286/363/347
f 302/364/348 285/365/349 301/362/346
f 252/366/350 302/364/348 248/361/345
f 252/366/350 303/367/351 302/364/348
f 302/364/348 283/368/352 285/365/349
f 303/367/351 283/368/352 302/364/348
f 257/369/353 303/367/351 252/366/350
f 257/369/353 304/370/354 303/367/351
f 304/370/354 283/368/352 303/367/351
f 283/368/352 304/370/354 280/371/355
f 262/372/356 304/370/354 257/369/353
f 268/373/357 304/370/354 262/372/356
f 3/3/3 280/371/355 304/370/354
f 304/370/354 268/373/357 3/3/3
f 280/371/355 3/3/3 2/2/2
f 171/374/358 3/3/3 268/373/357
f 3/3/359 171/374/359 1/1/359
f 305/375/360 163/185/189 168/190/361
f 163/185/189 305/375/360 167/189/193
f 165/187/191 166/188/192 306/376/362
f 307/377/363 165/187/191 306/376/362
f 165/187/191 307/377/363 168/190/361
f 168/190/361 308/378/364 305/375/360
f 308/378/364 168/190/361 307/377/363
f 161/183/187 167/189/193 309/379/365
f 167/189/193 305/375/360 310/380/366
f 167/189/193 310/380/366 309/379/365
f 305/375/360 311/381/367 310/380/366
f 311/381/367 305/375/360 308/378/364
f 310/380/366 311/381/367 312/382/368
f 309/379/365 310/380/366 312/382/368
f 306/376/362 313/383/369 307/377/363
f 314/384/370 307/377/363 313/383/369
f 307/377/363 314/384/370 308/378/364
f 308/378/364 315/385/371 311/381/367
f 315/385/371 308/378/364 314/384/370
f 166/188/192 316/386/372 306/376/362
f 313/383/369 306/376/362 317/387/373
f 306/376/362 316/386/372 317/387/373
f 311/381/367 315/385/371 318/388/374
f 312/382/368 311/381/367 318/388/374
f 312/382/368 318/388/374 319/389/375
f 309/379/365 312/382/368 319/389/375
f 313/383/369 207/390/376 314/384/370
f 317/387/373 208/391/377 313/383/369
f 207/390/376 313/383/369 208/391/377
f 314/384/370 206/392/378 315/385/371
f 206/392/378 314/384/370 207/390/376
f 315/385/371 206/392/378 320/393/379
f 318/388/374 315/385/371 320/393/379
f 318/388/374 320/393/379 321/394/380
f 319/389/375 318/388/374 321/394/380
f 208/391/377 317/387/373 213/395/381
f 220/396/382 213/395/381 317/387/373
f 316/386/372 220/396/382 317/387/373
f 320/393/379 206/392/378 199/397/383
f 320/393/379 199/397/383 322/398/384
f 321/394/380 320/393/379 322/398/384
f 321/394/380 322/398/384 323/399/385
f 324/400/386 321/394/380 323/399/385
f 319/389/375 321/394/380 324/400/386
f 324/400/386 309/379/365 319/389/375
f 199/397/383 193/401/387 322/398/384
f 322/398/384 193/401/387 325/402/388
f 323/399/385 322/398/384 325/402/388
f 326/403/389 323/399/385 325/402/388
f 323/399/385 326/403/389 327/404/390
f 327/404/390 324/400/386 323/399/385
f 324/400/386 327/404/390 328/405/391
f 309/379/365 324/400/386 329/406/392
f 329/406/392 324/400/386 328/405/391
f 161/183/187 309/379/365 329/406/392
f 193/401/387 187/407/393 325/402/388
f 325/402/388 186/408/394 326/403/389
f 186/408/394 325/402/388 187/407/393
f 191/409/395 326/403/389 186/408/394
f 326/403/389 191/409/395 330/410/396
f 330/410/396 327/404/390 326/403/389
f 327/404/390 330/410/396 331/411/397
f 331/411/397 328/405/391 327/404/390
f 328/405/391 331/411/397 332/412/398
f 332/412/398 329/406/392 328/405/391
f 161/183/187 329/406/392 333/413/399
f 329/406/392 332/412/398 333/413/399
f 316/386/372 227/414/400 220/396/382
f 334/415/401 227/414/400 316/386/372
f 166/188/192 334/415/401 316/386/372
f 335/416/402 227/414/400 334/415/401
f 227/414/400 335/416/402 228/417/403
f 334/415/401 336/418/404 335/416/402
f 336/418/404 334/415/401 337/419/405
f 337/419/405 334/415/401 166/188/192
f 164/420/406 337/419/405 166/188/192
f 338/421/407 228/417/403 335/416/402
f 335/416/402 339/422/408 338/421/407
f 339/422/408 335/416/402 336/418/404
f 228/417/403 338/421/407 230/423/409
f 336/418/404 340/424/410 339/422/408
f 340/424/410 336/418/404 341/425/411
f 337/419/405 341/425/411 336/418/404
f 341/425/411 337/419/405 342/426/412
f 342/426/412 337/419/405 164/420/406
f 342/426/412 343/427/413 341/425/411
f 343/427/413 340/424/410 341/425/411
f 344/428/414 339/422/408 340/424/410
f 343/427/413 344/428/414 340/424/410
f 345/429/415 338/421/407 339/422/408
f 339/422/408 344/428/414 345/429/415
f 162/430/416 342/426/412 164/420/406
f 343/427/413 342/426/412 162/430/416
f 236/431/417 230/423/409 338/421/407
f 346/432/418 236/431/417 338/421/407
f 338/421/407 345/429/415 346/432/418
f 161/433/419 343/427/413 162/430/416
f 161/433/419 347/434/420 343/427/413
f 347/434/420 344/428/414 343/427/413
f 344/428/414 348/435/421 345/429/415
f 349/436/422 348/435/421 344/428/414
f 347/434/420 349/436/422 344/428/414
f 348/435/421 350/437/423 345/429/415
f 345/429/415 350/437/423 346/432/418
f 350/437/423 242/438/424 346/432/418
f 242/438/424 236/431/417 346/432/418
f 161/433/419 351/439/425 347/434/420
f 347/434/420 352/440/426 349/436/422
f 351/439/425 352/440/426 347/434/420
f 352/440/426 353/441/427 349/436/422
f 349/436/422 353/441/427 348/435/421
f 353/441/427 354/442/428 348/435/421
f 348/435/421 354/442/428 350/437/423
f 354/442/428 247/443/429 350/437/423
f 350/437/423 247/443/429 242/438/424
f 355/444/430 353/441/427 352/440/426
f 351/439/425 355/444/430 352/440/426
f 161/433/419 356/445/431 351/439/425
f 356/445/431 355/444/430 351/439/425
f 161/433/419 333/446/432 356/445/431
f 357/447/433 354/442/428 353/441/427
f 353/441/427 355/444/430 357/447/433
f 358/448/434 247/443/429 354/442/428
f 354/442/428 357/447/433 358/448/434
f 359/449/435 357/447/433 355/444/430
f 355/444/430 356/445/431 359/449/435
f 360/450/436 358/448/434 357/447/433
f 357/447/433 359/449/435 360/450/436
f 247/443/429 358/448/434 251/451/437
f 361/452/438 251/451/437 358/448/434
f 358/448/434 360/450/436 361/452/438
f 362/453/439 360/450/436 359/449/435
f 356/445/431 362/453/439 359/449/435
f 333/446/432 363/454/440 356/445/431
f 356/445/431 363/454/440 362/453/439
f 364/455/441 361/452/438 360/450/436
f 360/450/436 362/453/439 364/455/441
f 333/446/432 332/456/442 363/454/440
f 363/454/440 365/457/443 362/453/439
f 362/453/439 365/457/443 364/455/441
f 332/456/442 331/458/444 363/454/440
f 363/454/440 331/458/444 365/457/443
f 251/451/437 361/452/438 255/459/445
f 366/460/446 255/459/445 361/452/438
f 361/452/438 364/455/441 366/460/446
f 365/457/443 367/461/447 364/455/441
f 364/455/441 367/461/447 366/460/446
f 331/458/444 330/462/448 365/457/443
f 365/457/443 330/462/448 367/461/447
f 255/459/445 366/460/446 260/463/449
f 367/461/447 267/464/450 366/460/446
f 267/464/450 260/463/449 366/460/446
f 330/462/448 191/465/451 367/461/447
f 367/461/447 191/465/451 267/464/450
